<svg width="1374" height="248" viewBox="0 0 1374 248" fill="none" xmlns="http://www.w3.org/2000/svg">
<path d="M5.60196 114V105.292L4.03396 105.992V105.068L5.97996 104.2H6.60996V114H5.60196ZM12.3729 114.154C11.6263 114.154 10.9636 113.939 10.3849 113.51C9.8156 113.081 9.3676 112.488 9.04093 111.732C8.71426 110.967 8.55093 110.089 8.55093 109.1C8.55093 108.101 8.71426 107.224 9.04093 106.468C9.3676 105.712 9.8156 105.119 10.3849 104.69C10.9636 104.261 11.6263 104.046 12.3729 104.046C13.1196 104.046 13.7776 104.261 14.3469 104.69C14.9256 105.119 15.3783 105.712 15.7049 106.468C16.0316 107.224 16.1949 108.101 16.1949 109.1C16.1949 110.089 16.0316 110.967 15.7049 111.732C15.3783 112.488 14.9256 113.081 14.3469 113.51C13.7776 113.939 13.1196 114.154 12.3729 114.154ZM12.3729 113.244C12.9423 113.244 13.4323 113.076 13.8429 112.74C14.2629 112.395 14.5896 111.914 14.8229 111.298C15.0563 110.673 15.1729 109.94 15.1729 109.1C15.1729 108.26 15.0563 107.532 14.8229 106.916C14.5896 106.291 14.2629 105.81 13.8429 105.474C13.4323 105.129 12.9423 104.956 12.3729 104.956C11.8129 104.956 11.3229 105.129 10.9029 105.474C10.4829 105.81 10.1563 106.291 9.92293 106.916C9.6896 107.532 9.57293 108.26 9.57293 109.1C9.57293 109.94 9.6896 110.673 9.92293 111.298C10.1563 111.914 10.4829 112.395 10.9029 112.74C11.3229 113.076 11.8129 113.244 12.3729 113.244ZM18.2411 114V104.2H19.3191V108.848L24.0791 104.2H25.4511L20.4531 109.016L25.5631 114H24.0931L19.3191 109.31V114H18.2411Z" fill="#0E4577"/>
<path d="M0.985484 14V13.258L4.90548 8.974C5.21348 8.638 5.45148 8.344 5.61948 8.092C5.79682 7.83067 5.91815 7.588 5.98348 7.364C6.05815 7.14 6.09548 6.902 6.09548 6.65C6.09548 6.15533 5.89948 5.74933 5.50748 5.432C5.12482 5.10533 4.63482 4.942 4.03748 4.942C3.58015 4.942 3.15548 5.03067 2.76348 5.208C2.37148 5.38533 1.93282 5.69333 1.44748 6.132L0.859484 5.432C1.37282 4.96533 1.89082 4.62 2.41348 4.396C2.93615 4.16267 3.48215 4.046 4.05148 4.046C4.63948 4.046 5.16215 4.158 5.61948 4.382C6.07682 4.59667 6.43615 4.89533 6.69748 5.278C6.95882 5.66067 7.08948 6.09933 7.08948 6.594C7.08948 6.92067 7.04748 7.224 6.96348 7.504C6.87948 7.77467 6.73015 8.06867 6.51548 8.386C6.30082 8.694 5.99282 9.06733 5.59148 9.506L2.24548 13.132L7.29948 13.118V14H0.985484ZM12.5614 14.154C11.8147 14.154 11.1521 13.9393 10.5734 13.51C10.0041 13.0807 9.55607 12.488 9.22941 11.732C8.90274 10.9667 8.73941 10.0893 8.73941 9.1C8.73941 8.10133 8.90274 7.224 9.22941 6.468C9.55607 5.712 10.0041 5.11933 10.5734 4.69C11.1521 4.26067 11.8147 4.046 12.5614 4.046C13.3081 4.046 13.9661 4.26067 14.5354 4.69C15.1141 5.11933 15.5667 5.712 15.8934 6.468C16.2201 7.224 16.3834 8.10133 16.3834 9.1C16.3834 10.0893 16.2201 10.9667 15.8934 11.732C15.5667 12.488 15.1141 13.0807 14.5354 13.51C13.9661 13.9393 13.3081 14.154 12.5614 14.154ZM12.5614 13.244C13.1307 13.244 13.6207 13.076 14.0314 12.74C14.4514 12.3947 14.7781 11.914 15.0114 11.298C15.2447 10.6727 15.3614 9.94 15.3614 9.1C15.3614 8.26 15.2447 7.532 15.0114 6.916C14.7781 6.29067 14.4514 5.81 14.0314 5.474C13.6207 5.12867 13.1307 4.956 12.5614 4.956C12.0014 4.956 11.5114 5.12867 11.0914 5.474C10.6714 5.81 10.3447 6.29067 10.1114 6.916C9.87807 7.532 9.76141 8.26 9.76141 9.1C9.76141 9.94 9.87807 10.6727 10.1114 11.298C10.3447 11.914 10.6714 12.3947 11.0914 12.74C11.5114 13.076 12.0014 13.244 12.5614 13.244ZM18.4296 14V4.2H19.5076V8.848L24.2676 4.2H25.6396L20.6416 9.016L25.7516 14H24.2816L19.5076 9.31V14H18.4296Z" fill="#0E4577"/>
<path d="M73.7732 242.034H76.0132C76.7226 242.034 77.3572 241.861 77.9172 241.516C78.4772 241.171 78.9206 240.704 79.2472 240.116C79.5832 239.519 79.7512 238.847 79.7512 238.1C79.7512 237.353 79.5832 236.686 79.2472 236.098C78.9206 235.501 78.4772 235.029 77.9172 234.684C77.3572 234.339 76.7226 234.166 76.0132 234.166H73.7732V242.034ZM72.6952 243V233.2H75.9432C76.6619 233.2 77.3199 233.326 77.9172 233.578C78.5239 233.821 79.0419 234.166 79.4712 234.614C79.9099 235.053 80.2459 235.571 80.4792 236.168C80.7219 236.756 80.8432 237.4 80.8432 238.1C80.8432 238.8 80.7219 239.449 80.4792 240.046C80.2459 240.634 79.9099 241.152 79.4712 241.6C79.0419 242.039 78.5239 242.384 77.9172 242.636C77.3199 242.879 76.6619 243 75.9432 243H72.6952ZM85.7648 243.14C85.1301 243.14 84.5561 242.986 84.0428 242.678C83.5294 242.361 83.1234 241.936 82.8248 241.404C82.5261 240.863 82.3768 240.256 82.3768 239.584C82.3768 238.912 82.5168 238.31 82.7968 237.778C83.0861 237.246 83.4734 236.826 83.9588 236.518C84.4441 236.21 84.9854 236.056 85.5828 236.056C86.1894 236.056 86.7261 236.21 87.1928 236.518C87.6688 236.817 88.0421 237.227 88.3128 237.75C88.5928 238.263 88.7328 238.847 88.7328 239.5V239.808H83.3708C83.4081 240.275 83.5341 240.695 83.7488 241.068C83.9728 241.432 84.2621 241.721 84.6168 241.936C84.9808 242.141 85.3774 242.244 85.8068 242.244C86.1614 242.244 86.5021 242.183 86.8288 242.062C87.1648 241.931 87.4494 241.759 87.6828 241.544L88.3268 242.23C87.9348 242.538 87.5288 242.767 87.1088 242.916C86.6888 243.065 86.2408 243.14 85.7648 243.14ZM83.3988 239.08H87.7248C87.6781 238.669 87.5521 238.305 87.3468 237.988C87.1508 237.661 86.8988 237.405 86.5908 237.218C86.2921 237.031 85.9561 236.938 85.5828 236.938C85.2094 236.938 84.8688 237.031 84.5608 237.218C84.2528 237.395 83.9961 237.647 83.7908 237.974C83.5948 238.291 83.4641 238.66 83.3988 239.08ZM93.5437 243.112C92.9091 243.112 92.3351 242.958 91.8217 242.65C91.3177 242.333 90.9164 241.908 90.6177 241.376C90.3191 240.835 90.1697 240.237 90.1697 239.584C90.1697 238.921 90.3191 238.324 90.6177 237.792C90.9164 237.26 91.3177 236.84 91.8217 236.532C92.3351 236.215 92.9091 236.056 93.5437 236.056C94.0477 236.056 94.5284 236.149 94.9857 236.336C95.4431 236.523 95.8397 236.784 96.1757 237.12L95.5177 237.834C95.2751 237.563 94.9811 237.353 94.6357 237.204C94.2904 237.055 93.9404 236.98 93.5857 236.98C93.1377 236.98 92.7317 237.097 92.3677 237.33C92.0131 237.563 91.7284 237.876 91.5137 238.268C91.2991 238.66 91.1917 239.099 91.1917 239.584C91.1917 240.069 91.2991 240.508 91.5137 240.9C91.7284 241.292 92.0131 241.605 92.3677 241.838C92.7317 242.071 93.1377 242.188 93.5857 242.188C93.9404 242.188 94.2904 242.113 94.6357 241.964C94.9811 241.805 95.2751 241.595 95.5177 241.334L96.1757 242.048C95.8397 242.384 95.4431 242.645 94.9857 242.832C94.5284 243.019 94.0477 243.112 93.5437 243.112Z" fill="#0E4577"/>
<path d="M188.625 243V233.2H195.317V234.152H189.703V237.652H193.539V238.59H189.703V243H188.625ZM198.796 243.14C198.161 243.14 197.587 242.986 197.074 242.678C196.561 242.361 196.155 241.936 195.856 241.404C195.557 240.863 195.408 240.256 195.408 239.584C195.408 238.912 195.548 238.31 195.828 237.778C196.117 237.246 196.505 236.826 196.99 236.518C197.475 236.21 198.017 236.056 198.614 236.056C199.221 236.056 199.757 236.21 200.224 236.518C200.7 236.817 201.073 237.227 201.344 237.75C201.624 238.263 201.764 238.847 201.764 239.5V239.808H196.402C196.439 240.275 196.565 240.695 196.78 241.068C197.004 241.432 197.293 241.721 197.648 241.936C198.012 242.141 198.409 242.244 198.838 242.244C199.193 242.244 199.533 242.183 199.86 242.062C200.196 241.931 200.481 241.759 200.714 241.544L201.358 242.23C200.966 242.538 200.56 242.767 200.14 242.916C199.72 243.065 199.272 243.14 198.796 243.14ZM196.43 239.08H200.756C200.709 238.669 200.583 238.305 200.378 237.988C200.182 237.661 199.93 237.405 199.622 237.218C199.323 237.031 198.987 236.938 198.614 236.938C198.241 236.938 197.9 237.031 197.592 237.218C197.284 237.395 197.027 237.647 196.822 237.974C196.626 238.291 196.495 238.66 196.43 239.08ZM203.509 243V232.99L204.531 232.78V237.106C204.792 236.779 205.11 236.527 205.483 236.35C205.856 236.173 206.272 236.084 206.729 236.084C207.326 236.084 207.858 236.243 208.325 236.56C208.801 236.868 209.179 237.288 209.459 237.82C209.739 238.343 209.879 238.931 209.879 239.584C209.879 240.237 209.734 240.83 209.445 241.362C209.165 241.894 208.782 242.319 208.297 242.636C207.821 242.944 207.28 243.098 206.673 243.098C206.244 243.098 205.842 243.014 205.469 242.846C205.105 242.669 204.788 242.421 204.517 242.104V243H203.509ZM206.477 242.216C206.934 242.216 207.34 242.104 207.695 241.88C208.059 241.647 208.344 241.334 208.549 240.942C208.764 240.541 208.871 240.093 208.871 239.598C208.871 239.094 208.764 238.646 208.549 238.254C208.344 237.862 208.059 237.554 207.695 237.33C207.34 237.097 206.934 236.98 206.477 236.98C206.076 236.98 205.702 237.064 205.357 237.232C205.021 237.391 204.746 237.619 204.531 237.918V241.264C204.755 241.563 205.035 241.796 205.371 241.964C205.716 242.132 206.085 242.216 206.477 242.216Z" fill="#0E4577"/>
<path d="M302.646 243V233.2H304.144L307.42 240.172L310.696 233.2H312.194V243H311.172V234.474L307.42 242.3L303.654 234.446V243H302.646ZM316.473 243.126C315.987 243.126 315.558 243.037 315.185 242.86C314.811 242.683 314.517 242.44 314.303 242.132C314.097 241.815 313.995 241.451 313.995 241.04C313.995 240.629 314.102 240.275 314.317 239.976C314.531 239.668 314.83 239.43 315.213 239.262C315.595 239.094 316.043 239.01 316.557 239.01C316.949 239.01 317.317 239.052 317.663 239.136C318.017 239.22 318.344 239.355 318.643 239.542V238.604C318.643 238.044 318.493 237.624 318.195 237.344C317.896 237.055 317.457 236.91 316.879 236.91C316.561 236.91 316.235 236.957 315.899 237.05C315.572 237.143 315.208 237.293 314.807 237.498L314.429 236.714C315.343 236.275 316.202 236.056 317.005 236.056C317.854 236.056 318.507 236.266 318.965 236.686C319.422 237.097 319.651 237.689 319.651 238.464V243H318.643V242.202C318.344 242.51 318.013 242.743 317.649 242.902C317.285 243.051 316.893 243.126 316.473 243.126ZM314.975 241.012C314.975 241.413 315.129 241.735 315.437 241.978C315.754 242.221 316.169 242.342 316.683 242.342C317.065 242.342 317.415 242.277 317.733 242.146C318.059 242.015 318.363 241.819 318.643 241.558V240.242C318.353 240.074 318.055 239.953 317.747 239.878C317.439 239.794 317.093 239.752 316.711 239.752C316.188 239.752 315.768 239.869 315.451 240.102C315.133 240.326 314.975 240.629 314.975 241.012ZM321.728 243V236.168H322.75V237.568C322.927 237.092 323.179 236.723 323.506 236.462C323.842 236.191 324.224 236.056 324.654 236.056C324.775 236.056 324.887 236.065 324.99 236.084C325.092 236.093 325.195 236.117 325.298 236.154V237.078C325.186 237.041 325.064 237.013 324.934 236.994C324.812 236.966 324.696 236.952 324.584 236.952C324.164 236.952 323.795 237.073 323.478 237.316C323.17 237.559 322.927 237.899 322.75 238.338V243H321.728Z" fill="#0E4577"/>
<path d="M416.463 243L420.341 233.2H421.629L425.451 243H424.289L423.127 239.92H418.759L417.597 243H416.463ZM419.095 239.066H422.805L420.943 234.18L419.095 239.066ZM426.629 245.926V236.168H427.637V237.148C427.898 236.803 428.216 236.541 428.589 236.364C428.972 236.177 429.392 236.084 429.849 236.084C430.446 236.084 430.978 236.243 431.445 236.56C431.921 236.868 432.299 237.288 432.579 237.82C432.859 238.343 432.999 238.931 432.999 239.584C432.999 240.237 432.854 240.83 432.565 241.362C432.285 241.894 431.902 242.319 431.417 242.636C430.941 242.944 430.4 243.098 429.793 243.098C429.364 243.098 428.967 243.019 428.603 242.86C428.239 242.692 427.922 242.454 427.651 242.146V245.926H426.629ZM429.597 242.216C430.054 242.216 430.46 242.104 430.815 241.88C431.179 241.647 431.464 241.334 431.669 240.942C431.884 240.541 431.991 240.093 431.991 239.598C431.991 239.094 431.884 238.646 431.669 238.254C431.464 237.862 431.179 237.554 430.815 237.33C430.46 237.097 430.054 236.98 429.597 236.98C429.196 236.98 428.822 237.064 428.477 237.232C428.141 237.391 427.866 237.619 427.651 237.918V241.264C427.875 241.563 428.155 241.796 428.491 241.964C428.836 242.132 429.205 242.216 429.597 242.216ZM434.791 243V236.168H435.813V237.568C435.991 237.092 436.243 236.723 436.569 236.462C436.905 236.191 437.288 236.056 437.717 236.056C437.839 236.056 437.951 236.065 438.053 236.084C438.156 236.093 438.259 236.117 438.361 236.154V237.078C438.249 237.041 438.128 237.013 437.997 236.994C437.876 236.966 437.759 236.952 437.647 236.952C437.227 236.952 436.859 237.073 436.541 237.316C436.233 237.559 435.991 237.899 435.813 238.338V243H434.791Z" fill="#0E4577"/>
<path d="M530.689 243V233.2H532.187L535.463 240.172L538.739 233.2H540.237V243H539.215V234.474L535.463 242.3L531.697 234.446V243H530.689ZM544.516 243.126C544.03 243.126 543.601 243.037 543.228 242.86C542.854 242.683 542.56 242.44 542.346 242.132C542.14 241.815 542.038 241.451 542.038 241.04C542.038 240.629 542.145 240.275 542.36 239.976C542.574 239.668 542.873 239.43 543.256 239.262C543.638 239.094 544.086 239.01 544.6 239.01C544.992 239.01 545.36 239.052 545.706 239.136C546.06 239.22 546.387 239.355 546.686 239.542V238.604C546.686 238.044 546.536 237.624 546.238 237.344C545.939 237.055 545.5 236.91 544.922 236.91C544.604 236.91 544.278 236.957 543.942 237.05C543.615 237.143 543.251 237.293 542.85 237.498L542.472 236.714C543.386 236.275 544.245 236.056 545.048 236.056C545.897 236.056 546.55 236.266 547.008 236.686C547.465 237.097 547.694 237.689 547.694 238.464V243H546.686V242.202C546.387 242.51 546.056 242.743 545.692 242.902C545.328 243.051 544.936 243.126 544.516 243.126ZM543.018 241.012C543.018 241.413 543.172 241.735 543.48 241.978C543.797 242.221 544.212 242.342 544.726 242.342C545.108 242.342 545.458 242.277 545.776 242.146C546.102 242.015 546.406 241.819 546.686 241.558V240.242C546.396 240.074 546.098 239.953 545.79 239.878C545.482 239.794 545.136 239.752 544.754 239.752C544.231 239.752 543.811 239.869 543.494 240.102C543.176 240.326 543.018 240.629 543.018 241.012ZM549.928 246.066C549.713 246.066 549.494 246.033 549.27 245.968V245.058C549.363 245.077 549.461 245.091 549.564 245.1C549.667 245.109 549.755 245.114 549.83 245.114C550.091 245.114 550.306 245.044 550.474 244.904C550.651 244.764 550.801 244.545 550.922 244.246L551.426 243L548.794 236.168H549.928L552 241.782L554.198 236.168H555.332L551.888 244.554C551.739 244.918 551.575 245.212 551.398 245.436C551.221 245.66 551.015 245.819 550.782 245.912C550.549 246.015 550.264 246.066 549.928 246.066Z" fill="#0E4577"/>
<path d="M649.816 243.154C648.985 243.154 648.262 242.935 647.646 242.496C647.039 242.057 646.601 241.441 646.33 240.648L647.31 240.256C647.543 240.881 647.87 241.357 648.29 241.684C648.71 242.011 649.223 242.174 649.83 242.174C650.595 242.174 651.207 241.913 651.664 241.39C652.121 240.867 652.35 240.167 652.35 239.29V233.2H653.428V239.304C653.428 240.088 653.279 240.769 652.98 241.348C652.691 241.927 652.275 242.375 651.734 242.692C651.193 243 650.553 243.154 649.816 243.154ZM657.959 243.112C657.473 243.112 657.044 243.005 656.671 242.79C656.297 242.575 656.003 242.277 655.789 241.894C655.583 241.511 655.481 241.073 655.481 240.578V236.168H656.517V240.284C656.517 240.891 656.68 241.371 657.007 241.726C657.333 242.081 657.777 242.258 658.337 242.258C658.719 242.258 659.06 242.169 659.359 241.992C659.667 241.815 659.923 241.558 660.129 241.222V236.168H661.151V243H660.129V241.894C659.867 242.295 659.555 242.599 659.191 242.804C658.836 243.009 658.425 243.112 657.959 243.112ZM663.247 243V236.168H664.269V237.274C664.531 236.863 664.843 236.56 665.207 236.364C665.571 236.159 665.982 236.056 666.439 236.056C666.934 236.056 667.363 236.163 667.727 236.378C668.101 236.583 668.39 236.877 668.595 237.26C668.81 237.633 668.917 238.072 668.917 238.576V243H667.895V238.87C667.895 238.263 667.727 237.787 667.391 237.442C667.065 237.087 666.621 236.91 666.061 236.91C665.688 236.91 665.347 236.999 665.039 237.176C664.731 237.353 664.475 237.615 664.269 237.96V243H663.247Z" fill="#0E4577"/>
<path d="M764.12 243.154C763.289 243.154 762.566 242.935 761.95 242.496C761.343 242.057 760.905 241.441 760.634 240.648L761.614 240.256C761.847 240.881 762.174 241.357 762.594 241.684C763.014 242.011 763.527 242.174 764.134 242.174C764.899 242.174 765.511 241.913 765.968 241.39C766.425 240.867 766.654 240.167 766.654 239.29V233.2H767.732V239.304C767.732 240.088 767.583 240.769 767.284 241.348C766.995 241.927 766.579 242.375 766.038 242.692C765.497 243 764.857 243.154 764.12 243.154ZM772.262 243.112C771.777 243.112 771.348 243.005 770.974 242.79C770.601 242.575 770.307 242.277 770.092 241.894C769.887 241.511 769.784 241.073 769.784 240.578V236.168H770.82V240.284C770.82 240.891 770.984 241.371 771.31 241.726C771.637 242.081 772.08 242.258 772.64 242.258C773.023 242.258 773.364 242.169 773.662 241.992C773.97 241.815 774.227 241.558 774.432 241.222V236.168H775.454V243H774.432V241.894C774.171 242.295 773.858 242.599 773.494 242.804C773.14 243.009 772.729 243.112 772.262 243.112ZM777.551 243V232.892L778.573 232.682V243H777.551Z" fill="#0E4577"/>
<path d="M870.171 243L874.049 233.2H875.337L879.159 243H877.997L876.835 239.92H872.467L871.305 243H870.171ZM872.803 239.066H876.513L874.651 234.18L872.803 239.066ZM882.568 243.112C882.083 243.112 881.653 243.005 881.28 242.79C880.907 242.575 880.613 242.277 880.398 241.894C880.193 241.511 880.09 241.073 880.09 240.578V236.168H881.126V240.284C881.126 240.891 881.289 241.371 881.616 241.726C881.943 242.081 882.386 242.258 882.946 242.258C883.329 242.258 883.669 242.169 883.968 241.992C884.276 241.815 884.533 241.558 884.738 241.222V236.168H885.76V243H884.738V241.894C884.477 242.295 884.164 242.599 883.8 242.804C883.445 243.009 883.035 243.112 882.568 243.112ZM891.021 246.066C890.563 246.066 890.101 246.001 889.635 245.87C889.177 245.749 888.753 245.576 888.361 245.352L888.795 244.568C889.215 244.783 889.597 244.941 889.943 245.044C890.288 245.147 890.633 245.198 890.979 245.198C891.604 245.198 892.075 245.049 892.393 244.75C892.719 244.451 892.883 244.017 892.883 243.448V242.076C892.621 242.403 892.304 242.655 891.931 242.832C891.557 243 891.147 243.084 890.699 243.084C890.111 243.084 889.579 242.93 889.103 242.622C888.627 242.305 888.249 241.885 887.969 241.362C887.689 240.83 887.549 240.237 887.549 239.584C887.549 238.931 887.689 238.343 887.969 237.82C888.258 237.288 888.645 236.868 889.131 236.56C889.616 236.243 890.157 236.084 890.755 236.084C891.184 236.084 891.581 236.168 891.945 236.336C892.309 236.495 892.626 236.733 892.897 237.05V236.168H893.905V243.434C893.905 244.283 893.657 244.932 893.163 245.38C892.668 245.837 891.954 246.066 891.021 246.066ZM890.951 242.202C891.352 242.202 891.721 242.123 892.057 241.964C892.393 241.796 892.668 241.567 892.883 241.278V237.904C892.659 237.615 892.374 237.391 892.029 237.232C891.693 237.064 891.333 236.98 890.951 236.98C890.493 236.98 890.083 237.092 889.719 237.316C889.364 237.54 889.079 237.848 888.865 238.24C888.659 238.632 888.557 239.08 888.557 239.584C888.557 240.079 888.659 240.527 888.865 240.928C889.079 241.32 889.364 241.633 889.719 241.866C890.083 242.09 890.493 242.202 890.951 242.202Z" fill="#0E4577"/>
<path d="M989.503 243.154C988.737 243.154 988.028 243.019 987.375 242.748C986.721 242.468 986.091 242.048 985.485 241.488L986.143 240.704C986.731 241.255 987.281 241.647 987.795 241.88C988.317 242.113 988.896 242.23 989.531 242.23C990.035 242.23 990.483 242.146 990.875 241.978C991.276 241.801 991.589 241.563 991.813 241.264C992.037 240.965 992.149 240.625 992.149 240.242C992.149 239.747 991.985 239.374 991.659 239.122C991.332 238.861 990.767 238.66 989.965 238.52L988.383 238.254C987.487 238.095 986.829 237.825 986.409 237.442C985.998 237.05 985.793 236.527 985.793 235.874C985.793 235.323 985.933 234.838 986.213 234.418C986.502 233.989 986.899 233.653 987.403 233.41C987.907 233.167 988.49 233.046 989.153 233.046C989.881 233.046 990.557 233.149 991.183 233.354C991.808 233.55 992.424 233.863 993.031 234.292L992.471 235.132C991.967 234.749 991.435 234.46 990.875 234.264C990.315 234.059 989.745 233.956 989.167 233.956C988.709 233.956 988.303 234.035 987.949 234.194C987.603 234.353 987.328 234.567 987.123 234.838C986.927 235.109 986.829 235.417 986.829 235.762C986.829 236.191 986.973 236.527 987.263 236.77C987.552 237.013 988.023 237.185 988.677 237.288L990.245 237.554C991.29 237.741 992.046 238.044 992.513 238.464C992.989 238.875 993.227 239.449 993.227 240.186C993.227 240.755 993.063 241.264 992.737 241.712C992.419 242.16 991.981 242.515 991.421 242.776C990.861 243.028 990.221 243.154 989.503 243.154ZM998.082 243.14C997.447 243.14 996.873 242.986 996.36 242.678C995.847 242.361 995.441 241.936 995.142 241.404C994.843 240.863 994.694 240.256 994.694 239.584C994.694 238.912 994.834 238.31 995.114 237.778C995.403 237.246 995.791 236.826 996.276 236.518C996.761 236.21 997.303 236.056 997.9 236.056C998.507 236.056 999.043 236.21 999.51 236.518C999.986 236.817 1000.36 237.227 1000.63 237.75C1000.91 238.263 1001.05 238.847 1001.05 239.5V239.808H995.688C995.725 240.275 995.851 240.695 996.066 241.068C996.29 241.432 996.579 241.721 996.934 241.936C997.298 242.141 997.695 242.244 998.124 242.244C998.479 242.244 998.819 242.183 999.146 242.062C999.482 241.931 999.767 241.759 1000 241.544L1000.64 242.23C1000.25 242.538 999.846 242.767 999.426 242.916C999.006 243.065 998.558 243.14 998.082 243.14ZM995.716 239.08H1000.04C999.995 238.669 999.869 238.305 999.664 237.988C999.468 237.661 999.216 237.405 998.908 237.218C998.609 237.031 998.273 236.938 997.9 236.938C997.527 236.938 997.186 237.031 996.878 237.218C996.57 237.395 996.313 237.647 996.108 237.974C995.912 238.291 995.781 238.66 995.716 239.08ZM1002.8 245.926V236.168H1003.8V237.148C1004.06 236.803 1004.38 236.541 1004.76 236.364C1005.14 236.177 1005.56 236.084 1006.02 236.084C1006.61 236.084 1007.14 236.243 1007.61 236.56C1008.09 236.868 1008.47 237.288 1008.75 237.82C1009.03 238.343 1009.17 238.931 1009.17 239.584C1009.17 240.237 1009.02 240.83 1008.73 241.362C1008.45 241.894 1008.07 242.319 1007.58 242.636C1007.11 242.944 1006.57 243.098 1005.96 243.098C1005.53 243.098 1005.13 243.019 1004.77 242.86C1004.41 242.692 1004.09 242.454 1003.82 242.146V245.926H1002.8ZM1005.76 242.216C1006.22 242.216 1006.63 242.104 1006.98 241.88C1007.35 241.647 1007.63 241.334 1007.84 240.942C1008.05 240.541 1008.16 240.093 1008.16 239.598C1008.16 239.094 1008.05 238.646 1007.84 238.254C1007.63 237.862 1007.35 237.554 1006.98 237.33C1006.63 237.097 1006.22 236.98 1005.76 236.98C1005.36 236.98 1004.99 237.064 1004.64 237.232C1004.31 237.391 1004.03 237.619 1003.82 237.918V241.264C1004.04 241.563 1004.32 241.796 1004.66 241.964C1005 242.132 1005.37 242.216 1005.76 242.216Z" fill="#0E4577"/>
<path d="M1105.73 243.154C1105.05 243.154 1104.41 243.028 1103.82 242.776C1103.24 242.515 1102.72 242.155 1102.27 241.698C1101.83 241.231 1101.49 240.695 1101.23 240.088C1100.98 239.472 1100.86 238.809 1100.86 238.1C1100.86 237.391 1100.98 236.733 1101.23 236.126C1101.49 235.51 1101.83 234.973 1102.27 234.516C1102.72 234.049 1103.24 233.69 1103.82 233.438C1104.41 233.177 1105.05 233.046 1105.73 233.046C1106.41 233.046 1107.04 233.177 1107.63 233.438C1108.22 233.69 1108.73 234.049 1109.17 234.516C1109.62 234.973 1109.97 235.51 1110.22 236.126C1110.47 236.733 1110.6 237.391 1110.6 238.1C1110.6 238.809 1110.47 239.472 1110.22 240.088C1109.97 240.695 1109.62 241.231 1109.17 241.698C1108.73 242.155 1108.22 242.515 1107.63 242.776C1107.04 243.028 1106.41 243.154 1105.73 243.154ZM1105.73 242.174C1106.26 242.174 1106.75 242.071 1107.21 241.866C1107.67 241.661 1108.07 241.371 1108.42 240.998C1108.76 240.625 1109.03 240.191 1109.21 239.696C1109.41 239.201 1109.51 238.669 1109.51 238.1C1109.51 237.521 1109.41 236.989 1109.21 236.504C1109.03 236.009 1108.76 235.575 1108.42 235.202C1108.07 234.829 1107.67 234.539 1107.21 234.334C1106.75 234.129 1106.26 234.026 1105.73 234.026C1105.2 234.026 1104.7 234.129 1104.24 234.334C1103.79 234.539 1103.38 234.829 1103.04 235.202C1102.69 235.575 1102.42 236.009 1102.23 236.504C1102.04 236.989 1101.95 237.517 1101.95 238.086C1101.95 238.665 1102.04 239.201 1102.23 239.696C1102.42 240.191 1102.69 240.625 1103.04 240.998C1103.38 241.371 1103.79 241.661 1104.24 241.866C1104.7 242.071 1105.2 242.174 1105.73 242.174ZM1115.51 243.112C1114.87 243.112 1114.3 242.958 1113.79 242.65C1113.28 242.333 1112.88 241.908 1112.58 241.376C1112.28 240.835 1112.13 240.237 1112.13 239.584C1112.13 238.921 1112.28 238.324 1112.58 237.792C1112.88 237.26 1113.28 236.84 1113.79 236.532C1114.3 236.215 1114.87 236.056 1115.51 236.056C1116.01 236.056 1116.49 236.149 1116.95 236.336C1117.41 236.523 1117.8 236.784 1118.14 237.12L1117.48 237.834C1117.24 237.563 1116.94 237.353 1116.6 237.204C1116.25 237.055 1115.9 236.98 1115.55 236.98C1115.1 236.98 1114.7 237.097 1114.33 237.33C1113.98 237.563 1113.69 237.876 1113.48 238.268C1113.26 238.66 1113.16 239.099 1113.16 239.584C1113.16 240.069 1113.26 240.508 1113.48 240.9C1113.69 241.292 1113.98 241.605 1114.33 241.838C1114.7 242.071 1115.1 242.188 1115.55 242.188C1115.9 242.188 1116.25 242.113 1116.6 241.964C1116.94 241.805 1117.24 241.595 1117.48 241.334L1118.14 242.048C1117.8 242.384 1117.41 242.645 1116.95 242.832C1116.49 243.019 1116.01 243.112 1115.51 243.112ZM1122.31 243.14C1121.72 243.14 1121.27 243 1120.96 242.72C1120.66 242.431 1120.51 242.015 1120.51 241.474V237.008H1119.1V236.168H1120.51V234.292L1121.54 234.054V236.168H1123.5V237.008H1121.54V241.208C1121.54 241.572 1121.61 241.833 1121.76 241.992C1121.92 242.151 1122.17 242.23 1122.53 242.23C1122.71 242.23 1122.87 242.216 1123.01 242.188C1123.15 242.16 1123.31 242.113 1123.5 242.048V242.958C1123.31 243.023 1123.11 243.07 1122.91 243.098C1122.7 243.126 1122.5 243.14 1122.31 243.14Z" fill="#0E4577"/>
<path d="M1215.61 243V233.2H1216.73L1222.47 241.32L1222.44 233.2H1223.46V243H1222.48L1216.6 234.698L1216.63 243H1215.61ZM1228.78 243.112C1228.15 243.112 1227.58 242.958 1227.08 242.65C1226.57 242.342 1226.18 241.922 1225.89 241.39C1225.6 240.858 1225.45 240.256 1225.45 239.584C1225.45 238.912 1225.6 238.31 1225.89 237.778C1226.18 237.246 1226.57 236.826 1227.08 236.518C1227.58 236.21 1228.15 236.056 1228.78 236.056C1229.41 236.056 1229.97 236.21 1230.46 236.518C1230.97 236.826 1231.36 237.246 1231.65 237.778C1231.94 238.31 1232.09 238.912 1232.09 239.584C1232.09 240.256 1231.94 240.858 1231.65 241.39C1231.36 241.922 1230.97 242.342 1230.46 242.65C1229.97 242.958 1229.41 243.112 1228.78 243.112ZM1228.77 242.216C1229.22 242.216 1229.61 242.104 1229.96 241.88C1230.31 241.647 1230.58 241.329 1230.77 240.928C1230.98 240.527 1231.08 240.079 1231.08 239.584C1231.08 239.08 1230.98 238.632 1230.77 238.24C1230.58 237.839 1230.31 237.526 1229.96 237.302C1229.61 237.069 1229.22 236.952 1228.77 236.952C1228.32 236.952 1227.93 237.069 1227.58 237.302C1227.23 237.526 1226.96 237.839 1226.75 238.24C1226.56 238.632 1226.46 239.08 1226.46 239.584C1226.46 240.079 1226.56 240.527 1226.75 240.928C1226.96 241.329 1227.23 241.647 1227.58 241.88C1227.93 242.104 1228.32 242.216 1228.77 242.216ZM1235.64 243L1232.84 236.168H1233.94L1236.15 241.726L1238.34 236.168H1239.43L1236.62 243H1235.64Z" fill="#0E4577"/>
<path d="M1333.99 243.154C1333.16 243.154 1332.44 242.935 1331.82 242.496C1331.22 242.057 1330.78 241.441 1330.51 240.648L1331.49 240.256C1331.72 240.881 1332.05 241.357 1332.47 241.684C1332.89 242.011 1333.4 242.174 1334.01 242.174C1334.77 242.174 1335.38 241.913 1335.84 241.39C1336.3 240.867 1336.53 240.167 1336.53 239.29V233.2H1337.61V239.304C1337.61 240.088 1337.46 240.769 1337.16 241.348C1336.87 241.927 1336.45 242.375 1335.91 242.692C1335.37 243 1334.73 243.154 1333.99 243.154ZM1341.81 243.126C1341.33 243.126 1340.9 243.037 1340.53 242.86C1340.15 242.683 1339.86 242.44 1339.64 242.132C1339.44 241.815 1339.34 241.451 1339.34 241.04C1339.34 240.629 1339.44 240.275 1339.66 239.976C1339.87 239.668 1340.17 239.43 1340.55 239.262C1340.94 239.094 1341.39 239.01 1341.9 239.01C1342.29 239.01 1342.66 239.052 1343 239.136C1343.36 239.22 1343.69 239.355 1343.98 239.542V238.604C1343.98 238.044 1343.84 237.624 1343.54 237.344C1343.24 237.055 1342.8 236.91 1342.22 236.91C1341.9 236.91 1341.58 236.957 1341.24 237.05C1340.91 237.143 1340.55 237.293 1340.15 237.498L1339.77 236.714C1340.69 236.275 1341.54 236.056 1342.35 236.056C1343.2 236.056 1343.85 236.266 1344.31 236.686C1344.76 237.097 1344.99 237.689 1344.99 238.464V243H1343.98V242.202C1343.69 242.51 1343.35 242.743 1342.99 242.902C1342.63 243.051 1342.23 243.126 1341.81 243.126ZM1340.32 241.012C1340.32 241.413 1340.47 241.735 1340.78 241.978C1341.1 242.221 1341.51 242.342 1342.02 242.342C1342.41 242.342 1342.76 242.277 1343.07 242.146C1343.4 242.015 1343.7 241.819 1343.98 241.558V240.242C1343.7 240.074 1343.4 239.953 1343.09 239.878C1342.78 239.794 1342.44 239.752 1342.05 239.752C1341.53 239.752 1341.11 239.869 1340.79 240.102C1340.48 240.326 1340.32 240.629 1340.32 241.012ZM1347.07 243V236.168H1348.09V237.274C1348.35 236.863 1348.67 236.56 1349.03 236.364C1349.39 236.159 1349.8 236.056 1350.26 236.056C1350.76 236.056 1351.19 236.163 1351.55 236.378C1351.92 236.583 1352.21 236.877 1352.42 237.26C1352.63 237.633 1352.74 238.072 1352.74 238.576V243H1351.72V238.87C1351.72 238.263 1351.55 237.787 1351.21 237.442C1350.89 237.087 1350.44 236.91 1349.88 236.91C1349.51 236.91 1349.17 236.999 1348.86 237.176C1348.55 237.353 1348.3 237.615 1348.09 237.96V243H1347.07Z" fill="#0E4577"/>
<line x1="48.686" y1="209.5" x2="1374" y2="209.5" stroke="#C1D9DB"/>
<line x1="48.686" y1="109.5" x2="1374" y2="109.5" stroke="#C1D9DB"/>
<line x1="47" y1="9.5" x2="1372.31" y2="9.5" stroke="#C1D9DB"/>
<line x1="48.686" y1="59.5" x2="1374" y2="59.5" stroke="#C1D9DB"/>
<line x1="48.686" y1="159.5" x2="1374" y2="159.5" stroke="#C1D9DB"/>
<line x1="47.5" y1="10" x2="47.5" y2="210" stroke="#C1D9DB"/>
<rect x="77" y="90" width="14" height="120" rx="7" fill="url(#paint0_linear_204_474)"/>
<rect x="191" y="132" width="14" height="78" rx="7" fill="url(#paint1_linear_204_474)"/>
<rect x="1331" y="90" width="14" height="120" rx="7" fill="url(#paint2_linear_204_474)"/>
<rect x="1217" y="73" width="14" height="137" rx="7" fill="url(#paint3_linear_204_474)"/>
<rect x="1103" y="90" width="14" height="120" rx="7" fill="url(#paint4_linear_204_474)"/>
<rect x="989" y="138" width="14" height="72" rx="7" fill="url(#paint5_linear_204_474)"/>
<rect x="875" y="90" width="14" height="120" rx="7" fill="url(#paint6_linear_204_474)"/>
<rect x="761" y="46" width="14" height="164" rx="7" fill="url(#paint7_linear_204_474)"/>
<rect x="647" y="177" width="14" height="33" rx="7" fill="url(#paint8_linear_204_474)"/>
<rect x="533" y="132" width="14" height="78" rx="7" fill="url(#paint9_linear_204_474)"/>
<rect x="419" y="90" width="14" height="120" rx="7" fill="url(#paint10_linear_204_474)"/>
<rect x="305" y="78" width="14" height="132" rx="7" fill="url(#paint11_linear_204_474)"/>
<defs>
<linearGradient id="paint0_linear_204_474" x1="84" y1="90" x2="84" y2="210" gradientUnits="userSpaceOnUse">
<stop stop-color="#497BFB"/>
<stop offset="1" stop-color="#2ECFF0"/>
</linearGradient>
<linearGradient id="paint1_linear_204_474" x1="198" y1="132" x2="198" y2="210" gradientUnits="userSpaceOnUse">
<stop stop-color="#497BFB"/>
<stop offset="1" stop-color="#2ECFF0"/>
</linearGradient>
<linearGradient id="paint2_linear_204_474" x1="1338" y1="90" x2="1338" y2="210" gradientUnits="userSpaceOnUse">
<stop stop-color="#497BFB"/>
<stop offset="1" stop-color="#2ECFF0"/>
</linearGradient>
<linearGradient id="paint3_linear_204_474" x1="1224" y1="73" x2="1224" y2="210" gradientUnits="userSpaceOnUse">
<stop stop-color="#497BFB"/>
<stop offset="1" stop-color="#2ECFF0"/>
</linearGradient>
<linearGradient id="paint4_linear_204_474" x1="1110" y1="90" x2="1110" y2="210" gradientUnits="userSpaceOnUse">
<stop stop-color="#497BFB"/>
<stop offset="1" stop-color="#2ECFF0"/>
</linearGradient>
<linearGradient id="paint5_linear_204_474" x1="996" y1="138" x2="996" y2="210" gradientUnits="userSpaceOnUse">
<stop stop-color="#497BFB"/>
<stop offset="1" stop-color="#2ECFF0"/>
</linearGradient>
<linearGradient id="paint6_linear_204_474" x1="882" y1="90" x2="882" y2="210" gradientUnits="userSpaceOnUse">
<stop stop-color="#497BFB"/>
<stop offset="1" stop-color="#2ECFF0"/>
</linearGradient>
<linearGradient id="paint7_linear_204_474" x1="768" y1="46" x2="768" y2="210" gradientUnits="userSpaceOnUse">
<stop stop-color="#497BFB"/>
<stop offset="1" stop-color="#2ECFF0"/>
</linearGradient>
<linearGradient id="paint8_linear_204_474" x1="654" y1="177" x2="654" y2="210" gradientUnits="userSpaceOnUse">
<stop stop-color="#497BFB"/>
<stop offset="1" stop-color="#2ECFF0"/>
</linearGradient>
<linearGradient id="paint9_linear_204_474" x1="540" y1="132" x2="540" y2="210" gradientUnits="userSpaceOnUse">
<stop stop-color="#497BFB"/>
<stop offset="1" stop-color="#2ECFF0"/>
</linearGradient>
<linearGradient id="paint10_linear_204_474" x1="426" y1="90" x2="426" y2="210" gradientUnits="userSpaceOnUse">
<stop stop-color="#497BFB"/>
<stop offset="1" stop-color="#2ECFF0"/>
</linearGradient>
<linearGradient id="paint11_linear_204_474" x1="312" y1="78" x2="312" y2="210" gradientUnits="userSpaceOnUse">
<stop stop-color="#497BFB"/>
<stop offset="1" stop-color="#2ECFF0"/>
</linearGradient>
</defs>
</svg>
