<svg width="222" height="222" viewBox="0 0 222 222" fill="none" xmlns="http://www.w3.org/2000/svg">
<g filter="url(#filter0_d_110_140)">
<circle cx="111" cy="111" r="89.0986" fill="#2ECFF0"/>
</g>
<g filter="url(#filter1_d_110_140)">
<circle cx="111" cy="111" r="79.1435" fill="white"/>
</g>
<g filter="url(#filter2_d_110_140)">
<path d="M179.028 111.732C179.028 149.707 148.244 180.491 110.269 180.491C72.2935 180.491 41.5087 149.707 41.5087 111.732C41.5087 73.7565 72.2935 42.9717 110.269 42.9717C148.244 42.9717 179.028 73.7565 179.028 111.732Z" fill="#487AFB"/>
</g>
<path d="M111 6.76297C111 3.02788 114.031 -0.0214729 117.759 0.205948C133.414 1.16092 148.716 5.42495 162.645 12.746C178.572 21.1178 192.225 33.2361 202.428 48.0569C212.632 62.8778 219.079 79.957 221.215 97.8232C223.351 115.689 221.112 133.807 214.69 150.616C208.268 167.424 197.856 182.42 184.351 194.31C170.847 206.201 154.654 214.63 137.167 218.872C119.681 223.113 101.425 223.041 83.9734 218.659C68.7117 214.828 54.4645 207.803 42.1609 198.076C39.2309 195.759 39.0055 191.466 41.496 188.682C43.9865 185.899 48.2485 185.682 51.198 187.974C61.8533 196.252 74.1322 202.243 87.2668 205.541C102.592 209.388 118.623 209.452 133.979 205.727C149.334 202.002 163.554 194.6 175.413 184.158C187.272 173.717 196.415 160.549 202.055 145.788C207.694 131.028 209.661 115.118 207.785 99.4289C205.909 83.7397 200.247 68.7418 191.287 55.7269C182.327 42.712 170.338 32.0704 156.351 24.7188C144.364 18.4181 131.218 14.6959 117.758 13.7605C114.032 13.5015 111 10.4981 111 6.76297Z" fill="url(#paint0_angular_110_140)"/>
<g filter="url(#filter3_d_110_140)">
<path d="M86.0067 121.36C83.9427 121.36 82.1307 120.844 80.5707 119.812C79.0107 118.78 77.7867 117.34 76.8987 115.492C76.0107 113.644 75.5667 111.496 75.5667 109.048C75.5667 106.312 76.0587 103.924 77.0427 101.884C78.0267 99.844 79.3947 98.26 81.1467 97.132C82.9227 95.98 84.9747 95.404 87.3027 95.404C88.5267 95.404 89.7387 95.596 90.9387 95.98C92.1387 96.364 93.1587 96.892 93.9987 97.564L91.8387 100.48C91.1187 99.952 90.3627 99.568 89.5707 99.328C88.7787 99.064 87.9147 98.932 86.9787 98.932C85.4187 98.932 84.0747 99.328 82.9467 100.12C81.8427 100.912 80.9907 102.064 80.3907 103.576C79.8147 105.064 79.5147 106.876 79.4907 109.012C80.3547 107.836 81.3987 106.924 82.6227 106.276C83.8467 105.628 85.1187 105.304 86.4387 105.304C88.0947 105.304 89.5587 105.64 90.8307 106.312C92.1027 106.96 93.0987 107.872 93.8187 109.048C94.5387 110.2 94.8987 111.532 94.8987 113.044C94.8987 114.628 94.5147 116.056 93.7467 117.328C92.9787 118.576 91.9227 119.56 90.5787 120.28C89.2347 121 87.7107 121.36 86.0067 121.36ZM85.8267 108.4C84.6507 108.4 83.5227 108.676 82.4427 109.228C81.3867 109.756 80.4627 110.488 79.6707 111.424C79.8867 112.744 80.2707 113.896 80.8227 114.88C81.3987 115.864 82.1187 116.632 82.9827 117.184C83.8467 117.712 84.8067 117.976 85.8627 117.976C86.8467 117.976 87.7227 117.772 88.4907 117.364C89.2587 116.932 89.8707 116.356 90.3267 115.636C90.7827 114.892 91.0107 114.052 91.0107 113.116C91.0107 112.204 90.7827 111.4 90.3267 110.704C89.8947 109.984 89.2947 109.42 88.5267 109.012C87.7587 108.604 86.8587 108.4 85.8267 108.4ZM108.68 121.36C106.64 121.36 104.84 120.82 103.28 119.74C101.744 118.636 100.532 117.112 99.644 115.168C98.78 113.2 98.348 110.944 98.348 108.4C98.348 105.808 98.78 103.54 99.644 101.596C100.532 99.652 101.744 98.14 103.28 97.06C104.84 95.956 106.64 95.404 108.68 95.404C110.72 95.404 112.508 95.956 114.044 97.06C115.604 98.14 116.816 99.652 117.68 101.596C118.544 103.54 118.976 105.808 118.976 108.4C118.976 110.944 118.544 113.2 117.68 115.168C116.816 117.112 115.604 118.636 114.044 119.74C112.508 120.82 110.72 121.36 108.68 121.36ZM108.68 117.868C109.976 117.868 111.092 117.484 112.028 116.716C112.988 115.924 113.732 114.82 114.26 113.404C114.788 111.988 115.052 110.32 115.052 108.4C115.052 106.456 114.788 104.776 114.26 103.36C113.732 101.944 112.988 100.852 112.028 100.084C111.092 99.292 109.976 98.896 108.68 98.896C107.384 98.896 106.256 99.292 105.296 100.084C104.36 100.852 103.616 101.944 103.064 103.36C102.536 104.776 102.272 106.456 102.272 108.4C102.272 110.32 102.536 111.988 103.064 113.404C103.616 114.82 104.36 115.924 105.296 116.716C106.256 117.484 107.384 117.868 108.68 117.868ZM135.336 108.58C133.728 108.58 132.42 107.992 131.412 106.816C130.404 105.616 129.9 104.044 129.9 102.1C129.9 100.132 130.404 98.56 131.412 97.384C132.42 96.208 133.728 95.62 135.336 95.62C136.944 95.62 138.252 96.208 139.26 97.384C140.268 98.56 140.772 100.132 140.772 102.1C140.772 104.044 140.268 105.616 139.26 106.816C138.252 107.992 136.944 108.58 135.336 108.58ZM135.336 106.348C136.224 106.348 136.932 105.976 137.46 105.232C138.012 104.488 138.288 103.444 138.288 102.1C138.288 100.756 138.012 99.712 137.46 98.968C136.932 98.2 136.224 97.816 135.336 97.816C134.448 97.816 133.728 98.2 133.176 98.968C132.648 99.712 132.384 100.756 132.384 102.1C132.384 103.444 132.648 104.488 133.176 105.232C133.728 105.976 134.448 106.348 135.336 106.348ZM134.076 121L148.296 95.8H151.32L137.064 121H134.076ZM150.276 121.18C148.668 121.18 147.36 120.592 146.352 119.416C145.344 118.216 144.84 116.644 144.84 114.7C144.84 112.732 145.344 111.16 146.352 109.984C147.36 108.808 148.668 108.22 150.276 108.22C151.884 108.22 153.192 108.808 154.2 109.984C155.208 111.16 155.712 112.732 155.712 114.7C155.712 116.644 155.208 118.216 154.2 119.416C153.192 120.592 151.884 121.18 150.276 121.18ZM150.276 118.948C151.164 118.948 151.872 118.576 152.4 117.832C152.952 117.088 153.228 116.044 153.228 114.7C153.228 113.356 152.952 112.312 152.4 111.568C151.872 110.8 151.164 110.416 150.276 110.416C149.388 110.416 148.668 110.8 148.116 111.568C147.588 112.312 147.324 113.356 147.324 114.7C147.324 116.044 147.588 117.088 148.116 117.832C148.668 118.576 149.388 118.948 150.276 118.948Z" fill="white"/>
</g>
<defs>
<filter id="filter0_d_110_140" x="15.9014" y="21.9014" width="186.197" height="186.197" filterUnits="userSpaceOnUse" color-interpolation-filters="sRGB">
<feFlood flood-opacity="0" result="BackgroundImageFix"/>
<feColorMatrix in="SourceAlpha" type="matrix" values="0 0 0 0 0 0 0 0 0 0 0 0 0 0 0 0 0 0 127 0" result="hardAlpha"/>
<feOffset dx="-2" dy="4"/>
<feGaussianBlur stdDeviation="2"/>
<feComposite in2="hardAlpha" operator="out"/>
<feColorMatrix type="matrix" values="0 0 0 0 0.545098 0 0 0 0 0.294118 0 0 0 0 0.94902 0 0 0 0.38 0"/>
<feBlend mode="normal" in2="BackgroundImageFix" result="effect1_dropShadow_110_140"/>
<feBlend mode="normal" in="SourceGraphic" in2="effect1_dropShadow_110_140" result="shape"/>
</filter>
<filter id="filter1_d_110_140" x="25.8564" y="31.8566" width="166.287" height="166.287" filterUnits="userSpaceOnUse" color-interpolation-filters="sRGB">
<feFlood flood-opacity="0" result="BackgroundImageFix"/>
<feColorMatrix in="SourceAlpha" type="matrix" values="0 0 0 0 0 0 0 0 0 0 0 0 0 0 0 0 0 0 127 0" result="hardAlpha"/>
<feOffset dx="-2" dy="4"/>
<feGaussianBlur stdDeviation="2"/>
<feComposite in2="hardAlpha" operator="out"/>
<feColorMatrix type="matrix" values="0 0 0 0 0.545098 0 0 0 0 0.294118 0 0 0 0 0.94902 0 0 0 0.38 0"/>
<feBlend mode="normal" in2="BackgroundImageFix" result="effect1_dropShadow_110_140"/>
<feBlend mode="normal" in="SourceGraphic" in2="effect1_dropShadow_110_140" result="shape"/>
</filter>
<filter id="filter2_d_110_140" x="31.5087" y="38.9717" width="153.52" height="153.52" filterUnits="userSpaceOnUse" color-interpolation-filters="sRGB">
<feFlood flood-opacity="0" result="BackgroundImageFix"/>
<feColorMatrix in="SourceAlpha" type="matrix" values="0 0 0 0 0 0 0 0 0 0 0 0 0 0 0 0 0 0 127 0" result="hardAlpha"/>
<feOffset dx="-2" dy="4"/>
<feGaussianBlur stdDeviation="4"/>
<feComposite in2="hardAlpha" operator="out"/>
<feColorMatrix type="matrix" values="0 0 0 0 0 0 0 0 0 0 0 0 0 0 0 0 0 0 0.58 0"/>
<feBlend mode="normal" in2="BackgroundImageFix" result="effect1_dropShadow_110_140"/>
<feBlend mode="normal" in="SourceGraphic" in2="effect1_dropShadow_110_140" result="shape"/>
</filter>
<filter id="filter3_d_110_140" x="69.5668" y="95.4041" width="88.145" height="33.9559" filterUnits="userSpaceOnUse" color-interpolation-filters="sRGB">
<feFlood flood-opacity="0" result="BackgroundImageFix"/>
<feColorMatrix in="SourceAlpha" type="matrix" values="0 0 0 0 0 0 0 0 0 0 0 0 0 0 0 0 0 0 127 0" result="hardAlpha"/>
<feOffset dx="-2" dy="4"/>
<feGaussianBlur stdDeviation="2"/>
<feComposite in2="hardAlpha" operator="out"/>
<feColorMatrix type="matrix" values="0 0 0 0 0 0 0 0 0 0 0 0 0 0 0 0 0 0 0.71 0"/>
<feBlend mode="normal" in2="BackgroundImageFix" result="effect1_dropShadow_110_140"/>
<feBlend mode="normal" in="SourceGraphic" in2="effect1_dropShadow_110_140" result="shape"/>
</filter>
<radialGradient id="paint0_angular_110_140" cx="0" cy="0" r="1" gradientUnits="userSpaceOnUse" gradientTransform="translate(111 111) rotate(-90.2894) scale(98.5573)">
<stop offset="0.743102" stop-color="#487CFB"/>
<stop offset="1" stop-color="#2ECFF0"/>
</radialGradient>
</defs>
</svg>
