<svg width="81" height="103" viewBox="0 0 81 103" fill="none" xmlns="http://www.w3.org/2000/svg">
<path fill-rule="evenodd" clip-rule="evenodd" d="M42.5002 60.7626C39.0966 60.7626 35.8323 59.4105 33.4256 57.0038C31.0189 54.5971 29.6668 51.3329 29.6668 47.9293C29.6668 44.5257 31.0189 41.2615 33.4256 38.8547C35.8323 36.448 39.0966 35.0959 42.5002 35.0959C45.9038 35.0959 49.168 36.448 51.5747 38.8547C53.9814 41.2615 55.3335 44.5257 55.3335 47.9293C55.3335 51.3329 53.9814 54.5971 51.5747 57.0038C49.168 59.4105 45.9038 60.7626 42.5002 60.7626V60.7626ZM42.5002 54.3459C40.7984 54.3459 39.1663 53.6699 37.9629 52.4666C36.7595 51.2632 36.0835 49.6311 36.0835 47.9293C36.0835 46.2275 36.7595 44.5954 37.9629 43.392C39.1663 42.1887 40.7984 41.5126 42.5002 41.5126C44.202 41.5126 45.8341 42.1887 47.0374 43.392C48.2408 44.5954 48.9168 46.2275 48.9168 47.9293C48.9168 49.6311 48.2408 51.2632 47.0374 52.4666C45.8341 53.6699 44.202 54.3459 42.5002 54.3459Z" fill="#497BFB"/>
<path d="M42.5001 29.0161C40.7983 29.0161 39.1662 28.3401 37.9628 27.1367C36.7595 25.9334 36.0834 24.3013 36.0834 22.5995C36.0834 20.8977 36.7595 19.2656 37.9628 18.0622C39.1662 16.8588 40.7983 16.1828 42.5001 16.1828C44.2019 16.1828 45.834 16.8588 47.0373 18.0622C48.2407 19.2656 48.9167 20.8977 48.9167 22.5995C48.9167 24.3013 48.2407 25.9334 47.0373 27.1367C45.834 28.3401 44.2019 29.0161 42.5001 29.0161Z" fill="#497BFB"/>
<path fill-rule="evenodd" clip-rule="evenodd" d="M58.5417 3.20831C61.0945 3.20831 63.5426 4.22237 65.3477 6.02741C67.1527 7.83245 68.1667 10.2806 68.1667 12.8333V64.1666C68.1667 66.7193 67.1527 69.1675 65.3477 70.9725C63.5426 72.7776 61.0945 73.7916 58.5417 73.7916H26.4584C23.9057 73.7916 21.4576 72.7776 19.6525 70.9725C17.8475 69.1675 16.8334 66.7193 16.8334 64.1666V12.8333C16.8334 10.2806 17.8475 7.83245 19.6525 6.02741C21.4576 4.22237 23.9057 3.20831 26.4584 3.20831H58.5417ZM26.4584 9.62498H58.5417C59.3927 9.62498 60.2087 9.963 60.8104 10.5647C61.4121 11.1664 61.7501 11.9824 61.7501 12.8333V64.1666C61.7501 65.0175 61.4121 65.8336 60.8104 66.4353C60.2087 67.037 59.3927 67.375 58.5417 67.375H26.4584C25.6075 67.375 24.7915 67.037 24.1898 66.4353C23.5881 65.8336 23.2501 65.0175 23.2501 64.1666V12.8333C23.2501 11.9824 23.5881 11.1664 24.1898 10.5647C24.7915 9.963 25.6075 9.62498 26.4584 9.62498V9.62498Z" fill="#497BFB"/>
<path fill-rule="evenodd" clip-rule="evenodd" d="M38.5002 63.7626C35.0966 63.7626 31.8323 62.4105 29.4256 60.0038C27.0189 57.5971 25.6668 54.3329 25.6668 50.9293C25.6668 47.5257 27.0189 44.2615 29.4256 41.8547C31.8323 39.448 35.0966 38.0959 38.5002 38.0959C41.9038 38.0959 45.168 39.448 47.5747 41.8547C49.9814 44.2615 51.3335 47.5257 51.3335 50.9293C51.3335 54.3329 49.9814 57.5971 47.5747 60.0038C45.168 62.4105 41.9038 63.7626 38.5002 63.7626V63.7626ZM38.5002 57.3459C36.7984 57.3459 35.1663 56.6699 33.9629 55.4666C32.7595 54.2632 32.0835 52.6311 32.0835 50.9293C32.0835 49.2275 32.7595 47.5954 33.9629 46.392C35.1663 45.1887 36.7984 44.5126 38.5002 44.5126C40.202 44.5126 41.8341 45.1887 43.0374 46.392C44.2408 47.5954 44.9168 49.2275 44.9168 50.9293C44.9168 52.6311 44.2408 54.2632 43.0374 55.4666C41.8341 56.6699 40.202 57.3459 38.5002 57.3459Z" fill="white"/>
<path d="M38.5001 32.0161C36.7983 32.0161 35.1662 31.3401 33.9628 30.1367C32.7595 28.9334 32.0834 27.3013 32.0834 25.5995C32.0834 23.8977 32.7595 22.2656 33.9628 21.0622C35.1662 19.8588 36.7983 19.1828 38.5001 19.1828C40.2019 19.1828 41.834 19.8588 43.0373 21.0622C44.2407 22.2656 44.9167 23.8977 44.9167 25.5995C44.9167 27.3013 44.2407 28.9334 43.0373 30.1367C41.834 31.3401 40.2019 32.0161 38.5001 32.0161Z" fill="white"/>
<path fill-rule="evenodd" clip-rule="evenodd" d="M54.5417 6.20831C57.0945 6.20831 59.5426 7.22237 61.3477 9.02741C63.1527 10.8324 64.1667 13.2806 64.1667 15.8333V67.1666C64.1667 69.7193 63.1527 72.1675 61.3477 73.9725C59.5426 75.7776 57.0945 76.7916 54.5417 76.7916H22.4584C19.9057 76.7916 17.4576 75.7776 15.6525 73.9725C13.8475 72.1675 12.8334 69.7193 12.8334 67.1666V15.8333C12.8334 13.2806 13.8475 10.8324 15.6525 9.02741C17.4576 7.22237 19.9057 6.20831 22.4584 6.20831H54.5417ZM22.4584 12.625H54.5417C55.3927 12.625 56.2087 12.963 56.8104 13.5647C57.4121 14.1664 57.7501 14.9824 57.7501 15.8333V67.1666C57.7501 68.0175 57.4121 68.8336 56.8104 69.4353C56.2087 70.037 55.3927 70.375 54.5417 70.375H22.4584C21.6075 70.375 20.7915 70.037 20.1898 69.4353C19.5881 68.8336 19.2501 68.0175 19.2501 67.1666V15.8333C19.2501 14.9824 19.5881 14.1664 20.1898 13.5647C20.7915 12.963 21.6075 12.625 22.4584 12.625V12.625Z" fill="white"/>
<path d="M10.4384 96.112C9.71039 96.112 9.11306 95.9113 8.64639 95.51C8.17972 95.0993 7.94639 94.572 7.94639 93.928C7.94639 93.2653 8.19372 92.752 8.68839 92.388C9.18306 92.0147 9.87372 91.828 10.7604 91.828C11.0217 91.828 11.2877 91.856 11.5584 91.912C11.8291 91.9587 12.1231 92.0427 12.4404 92.164V91.576C12.4404 91.2307 12.3191 90.9693 12.0764 90.792C11.8431 90.6147 11.4884 90.526 11.0124 90.526C10.7417 90.526 10.4384 90.568 10.1024 90.652C9.77572 90.7267 9.40239 90.8527 8.98239 91.03L8.19839 89.448C8.78639 89.1867 9.35106 88.9907 9.89239 88.86C10.4431 88.7293 10.9844 88.664 11.5164 88.664C12.5151 88.664 13.2897 88.902 13.8404 89.378C14.4004 89.854 14.6804 90.5213 14.6804 91.38V96H12.4404V95.37C12.1231 95.6313 11.8057 95.8227 11.4884 95.944C11.1711 96.056 10.8211 96.112 10.4384 96.112ZM10.0324 93.886C10.0324 94.1193 10.1304 94.3013 10.3264 94.432C10.5224 94.5533 10.7931 94.614 11.1384 94.614C11.3717 94.614 11.5957 94.586 11.8104 94.53C12.0344 94.4647 12.2444 94.3713 12.4404 94.25V93.326C12.2351 93.2793 12.0251 93.242 11.8104 93.214C11.6051 93.186 11.3997 93.172 11.1944 93.172C10.8211 93.172 10.5317 93.2327 10.3264 93.354C10.1304 93.4753 10.0324 93.6527 10.0324 93.886ZM16.3898 99.01V88.776H18.6298V89.784C18.8631 89.4667 19.1711 89.2147 19.5538 89.028C19.9365 88.832 20.3425 88.734 20.7718 88.734C21.2105 88.734 21.6258 88.832 22.0178 89.028C22.4098 89.2147 22.7458 89.476 23.0258 89.812C23.3151 90.1387 23.5438 90.526 23.7118 90.974C23.8798 91.422 23.9638 91.898 23.9638 92.402C23.9638 92.906 23.8751 93.382 23.6978 93.83C23.5298 94.2687 23.2918 94.6513 22.9838 94.978C22.6851 95.3047 22.3305 95.566 21.9198 95.762C21.5091 95.9487 21.0705 96.042 20.6038 96.042C20.2118 96.042 19.8478 95.972 19.5118 95.832C19.1758 95.6827 18.8911 95.4727 18.6578 95.202V99.01H16.3898ZM20.0158 90.61C19.7358 90.61 19.4838 90.6613 19.2598 90.764C19.0358 90.8573 18.8351 91.002 18.6578 91.198V93.606C18.8351 93.7833 19.0405 93.9233 19.2738 94.026C19.5071 94.1287 19.7545 94.18 20.0158 94.18C20.5105 94.18 20.9211 94.012 21.2478 93.676C21.5745 93.3307 21.7378 92.9013 21.7378 92.388C21.7378 91.884 21.5698 91.464 21.2338 91.128C20.9071 90.7827 20.5011 90.61 20.0158 90.61ZM25.3996 99.01V88.776H27.6396V89.784C27.8729 89.4667 28.1809 89.2147 28.5636 89.028C28.9462 88.832 29.3522 88.734 29.7816 88.734C30.2202 88.734 30.6356 88.832 31.0276 89.028C31.4196 89.2147 31.7556 89.476 32.0356 89.812C32.3249 90.1387 32.5536 90.526 32.7216 90.974C32.8896 91.422 32.9736 91.898 32.9736 92.402C32.9736 92.906 32.8849 93.382 32.7076 93.83C32.5396 94.2687 32.3016 94.6513 31.9936 94.978C31.6949 95.3047 31.3402 95.566 30.9296 95.762C30.5189 95.9487 30.0802 96.042 29.6136 96.042C29.2216 96.042 28.8576 95.972 28.5216 95.832C28.1856 95.6827 27.9009 95.4727 27.6676 95.202V99.01H25.3996ZM29.0256 90.61C28.7456 90.61 28.4936 90.6613 28.2696 90.764C28.0456 90.8573 27.8449 91.002 27.6676 91.198V93.606C27.8449 93.7833 28.0502 93.9233 28.2836 94.026C28.5169 94.1287 28.7642 94.18 29.0256 94.18C29.5202 94.18 29.9309 94.012 30.2576 93.676C30.5842 93.3307 30.7476 92.9013 30.7476 92.388C30.7476 91.884 30.5796 91.464 30.2436 91.128C29.9169 90.7827 29.5109 90.61 29.0256 90.61ZM34.6193 86.2H36.8873L41.2413 92.136L41.1993 86.2H43.4673V96H41.3393L36.8453 89.868L36.8873 96H34.6193V86.2ZM47.4618 96.112C46.7338 96.112 46.1365 95.9113 45.6698 95.51C45.2032 95.0993 44.9698 94.572 44.9698 93.928C44.9698 93.2653 45.2172 92.752 45.7118 92.388C46.2065 92.0147 46.8972 91.828 47.7838 91.828C48.0452 91.828 48.3112 91.856 48.5818 91.912C48.8525 91.9587 49.1465 92.0427 49.4638 92.164V91.576C49.4638 91.2307 49.3425 90.9693 49.0998 90.792C48.8665 90.6147 48.5118 90.526 48.0358 90.526C47.7652 90.526 47.4618 90.568 47.1258 90.652C46.7992 90.7267 46.4258 90.8527 46.0058 91.03L45.2218 89.448C45.8098 89.1867 46.3745 88.9907 46.9158 88.86C47.4665 88.7293 48.0078 88.664 48.5398 88.664C49.5385 88.664 50.3132 88.902 50.8638 89.378C51.4238 89.854 51.7038 90.5213 51.7038 91.38V96H49.4638V95.37C49.1465 95.6313 48.8292 95.8227 48.5118 95.944C48.1945 96.056 47.8445 96.112 47.4618 96.112ZM47.0558 93.886C47.0558 94.1193 47.1538 94.3013 47.3498 94.432C47.5458 94.5533 47.8165 94.614 48.1618 94.614C48.3952 94.614 48.6192 94.586 48.8338 94.53C49.0578 94.4647 49.2678 94.3713 49.4638 94.25V93.326C49.2585 93.2793 49.0485 93.242 48.8338 93.214C48.6285 93.186 48.4232 93.172 48.2178 93.172C47.8445 93.172 47.5552 93.2327 47.3498 93.354C47.1538 93.4753 47.0558 93.6527 47.0558 93.886ZM53.4133 96V88.776H55.6813V89.924C55.9426 89.5133 56.2553 89.2007 56.6193 88.986C56.9833 88.7713 57.3846 88.664 57.8233 88.664C58.2899 88.664 58.7006 88.7853 59.0553 89.028C59.4099 89.2707 59.6759 89.5973 59.8533 90.008C60.1333 89.5787 60.4739 89.2473 60.8753 89.014C61.2766 88.7807 61.7246 88.664 62.2193 88.664C62.8819 88.664 63.4233 88.902 63.8433 89.378C64.2726 89.854 64.4873 90.4607 64.4873 91.198V96H62.2193V91.646C62.2193 91.282 62.1166 90.9927 61.9113 90.778C61.7153 90.554 61.4586 90.442 61.1413 90.442C60.9359 90.442 60.7446 90.4887 60.5673 90.582C60.3993 90.666 60.2406 90.806 60.0913 91.002V96H57.8233V91.646C57.8233 91.282 57.7206 90.9927 57.5153 90.778C57.3193 90.554 57.0626 90.442 56.7453 90.442C56.5399 90.442 56.3486 90.4887 56.1713 90.582C55.9939 90.6753 55.8306 90.8153 55.6813 91.002V96H53.4133ZM72.7205 94.978C72.2538 95.3887 71.7825 95.6873 71.3065 95.874C70.8305 96.0513 70.2891 96.14 69.6825 96.14C69.1505 96.14 68.6511 96.0467 68.1845 95.86C67.7271 95.664 67.3258 95.398 66.9805 95.062C66.6351 94.726 66.3645 94.3293 66.1685 93.872C65.9725 93.4147 65.8745 92.9247 65.8745 92.402C65.8745 91.87 65.9678 91.3753 66.1545 90.918C66.3411 90.4607 66.5931 90.064 66.9105 89.728C67.2371 89.392 67.6245 89.1307 68.0725 88.944C68.5205 88.748 69.0011 88.65 69.5145 88.65C70.0371 88.65 70.5131 88.748 70.9425 88.944C71.3811 89.1307 71.7545 89.392 72.0625 89.728C72.3798 90.064 72.6271 90.47 72.8045 90.946C72.9818 91.4127 73.0705 91.926 73.0705 92.486V92.976H68.1005C68.2031 93.3773 68.4085 93.704 68.7165 93.956C69.0245 94.208 69.3838 94.334 69.7945 94.334C70.0931 94.334 70.3638 94.2827 70.6065 94.18C70.8585 94.0773 71.0638 93.928 71.2225 93.732L72.7205 94.978ZM69.5005 90.414C69.1458 90.414 68.8471 90.526 68.6045 90.75C68.3618 90.974 68.1938 91.2867 68.1005 91.688H70.9705C70.8771 91.296 70.6998 90.988 70.4385 90.764C70.1771 90.5307 69.8645 90.414 69.5005 90.414Z" fill="#487CFB"/>
<path d="M10.4384 96.112C9.71039 96.112 9.11306 95.9113 8.64639 95.51C8.17972 95.0993 7.94639 94.572 7.94639 93.928C7.94639 93.2653 8.19372 92.752 8.68839 92.388C9.18306 92.0147 9.87372 91.828 10.7604 91.828C11.0217 91.828 11.2877 91.856 11.5584 91.912C11.8291 91.9587 12.1231 92.0427 12.4404 92.164V91.576C12.4404 91.2307 12.3191 90.9693 12.0764 90.792C11.8431 90.6147 11.4884 90.526 11.0124 90.526C10.7417 90.526 10.4384 90.568 10.1024 90.652C9.77572 90.7267 9.40239 90.8527 8.98239 91.03L8.19839 89.448C8.78639 89.1867 9.35106 88.9907 9.89239 88.86C10.4431 88.7293 10.9844 88.664 11.5164 88.664C12.5151 88.664 13.2897 88.902 13.8404 89.378C14.4004 89.854 14.6804 90.5213 14.6804 91.38V96H12.4404V95.37C12.1231 95.6313 11.8057 95.8227 11.4884 95.944C11.1711 96.056 10.8211 96.112 10.4384 96.112ZM10.0324 93.886C10.0324 94.1193 10.1304 94.3013 10.3264 94.432C10.5224 94.5533 10.7931 94.614 11.1384 94.614C11.3717 94.614 11.5957 94.586 11.8104 94.53C12.0344 94.4647 12.2444 94.3713 12.4404 94.25V93.326C12.2351 93.2793 12.0251 93.242 11.8104 93.214C11.6051 93.186 11.3997 93.172 11.1944 93.172C10.8211 93.172 10.5317 93.2327 10.3264 93.354C10.1304 93.4753 10.0324 93.6527 10.0324 93.886ZM16.3898 99.01V88.776H18.6298V89.784C18.8631 89.4667 19.1711 89.2147 19.5538 89.028C19.9365 88.832 20.3425 88.734 20.7718 88.734C21.2105 88.734 21.6258 88.832 22.0178 89.028C22.4098 89.2147 22.7458 89.476 23.0258 89.812C23.3151 90.1387 23.5438 90.526 23.7118 90.974C23.8798 91.422 23.9638 91.898 23.9638 92.402C23.9638 92.906 23.8751 93.382 23.6978 93.83C23.5298 94.2687 23.2918 94.6513 22.9838 94.978C22.6851 95.3047 22.3305 95.566 21.9198 95.762C21.5091 95.9487 21.0705 96.042 20.6038 96.042C20.2118 96.042 19.8478 95.972 19.5118 95.832C19.1758 95.6827 18.8911 95.4727 18.6578 95.202V99.01H16.3898ZM20.0158 90.61C19.7358 90.61 19.4838 90.6613 19.2598 90.764C19.0358 90.8573 18.8351 91.002 18.6578 91.198V93.606C18.8351 93.7833 19.0405 93.9233 19.2738 94.026C19.5071 94.1287 19.7545 94.18 20.0158 94.18C20.5105 94.18 20.9211 94.012 21.2478 93.676C21.5745 93.3307 21.7378 92.9013 21.7378 92.388C21.7378 91.884 21.5698 91.464 21.2338 91.128C20.9071 90.7827 20.5011 90.61 20.0158 90.61ZM25.3996 99.01V88.776H27.6396V89.784C27.8729 89.4667 28.1809 89.2147 28.5636 89.028C28.9462 88.832 29.3522 88.734 29.7816 88.734C30.2202 88.734 30.6356 88.832 31.0276 89.028C31.4196 89.2147 31.7556 89.476 32.0356 89.812C32.3249 90.1387 32.5536 90.526 32.7216 90.974C32.8896 91.422 32.9736 91.898 32.9736 92.402C32.9736 92.906 32.8849 93.382 32.7076 93.83C32.5396 94.2687 32.3016 94.6513 31.9936 94.978C31.6949 95.3047 31.3402 95.566 30.9296 95.762C30.5189 95.9487 30.0802 96.042 29.6136 96.042C29.2216 96.042 28.8576 95.972 28.5216 95.832C28.1856 95.6827 27.9009 95.4727 27.6676 95.202V99.01H25.3996ZM29.0256 90.61C28.7456 90.61 28.4936 90.6613 28.2696 90.764C28.0456 90.8573 27.8449 91.002 27.6676 91.198V93.606C27.8449 93.7833 28.0502 93.9233 28.2836 94.026C28.5169 94.1287 28.7642 94.18 29.0256 94.18C29.5202 94.18 29.9309 94.012 30.2576 93.676C30.5842 93.3307 30.7476 92.9013 30.7476 92.388C30.7476 91.884 30.5796 91.464 30.2436 91.128C29.9169 90.7827 29.5109 90.61 29.0256 90.61ZM34.6193 86.2H36.8873L41.2413 92.136L41.1993 86.2H43.4673V96H41.3393L36.8453 89.868L36.8873 96H34.6193V86.2ZM47.4618 96.112C46.7338 96.112 46.1365 95.9113 45.6698 95.51C45.2032 95.0993 44.9698 94.572 44.9698 93.928C44.9698 93.2653 45.2172 92.752 45.7118 92.388C46.2065 92.0147 46.8972 91.828 47.7838 91.828C48.0452 91.828 48.3112 91.856 48.5818 91.912C48.8525 91.9587 49.1465 92.0427 49.4638 92.164V91.576C49.4638 91.2307 49.3425 90.9693 49.0998 90.792C48.8665 90.6147 48.5118 90.526 48.0358 90.526C47.7652 90.526 47.4618 90.568 47.1258 90.652C46.7992 90.7267 46.4258 90.8527 46.0058 91.03L45.2218 89.448C45.8098 89.1867 46.3745 88.9907 46.9158 88.86C47.4665 88.7293 48.0078 88.664 48.5398 88.664C49.5385 88.664 50.3132 88.902 50.8638 89.378C51.4238 89.854 51.7038 90.5213 51.7038 91.38V96H49.4638V95.37C49.1465 95.6313 48.8292 95.8227 48.5118 95.944C48.1945 96.056 47.8445 96.112 47.4618 96.112ZM47.0558 93.886C47.0558 94.1193 47.1538 94.3013 47.3498 94.432C47.5458 94.5533 47.8165 94.614 48.1618 94.614C48.3952 94.614 48.6192 94.586 48.8338 94.53C49.0578 94.4647 49.2678 94.3713 49.4638 94.25V93.326C49.2585 93.2793 49.0485 93.242 48.8338 93.214C48.6285 93.186 48.4232 93.172 48.2178 93.172C47.8445 93.172 47.5552 93.2327 47.3498 93.354C47.1538 93.4753 47.0558 93.6527 47.0558 93.886ZM53.4133 96V88.776H55.6813V89.924C55.9426 89.5133 56.2553 89.2007 56.6193 88.986C56.9833 88.7713 57.3846 88.664 57.8233 88.664C58.2899 88.664 58.7006 88.7853 59.0553 89.028C59.4099 89.2707 59.6759 89.5973 59.8533 90.008C60.1333 89.5787 60.4739 89.2473 60.8753 89.014C61.2766 88.7807 61.7246 88.664 62.2193 88.664C62.8819 88.664 63.4233 88.902 63.8433 89.378C64.2726 89.854 64.4873 90.4607 64.4873 91.198V96H62.2193V91.646C62.2193 91.282 62.1166 90.9927 61.9113 90.778C61.7153 90.554 61.4586 90.442 61.1413 90.442C60.9359 90.442 60.7446 90.4887 60.5673 90.582C60.3993 90.666 60.2406 90.806 60.0913 91.002V96H57.8233V91.646C57.8233 91.282 57.7206 90.9927 57.5153 90.778C57.3193 90.554 57.0626 90.442 56.7453 90.442C56.5399 90.442 56.3486 90.4887 56.1713 90.582C55.9939 90.6753 55.8306 90.8153 55.6813 91.002V96H53.4133ZM72.7205 94.978C72.2538 95.3887 71.7825 95.6873 71.3065 95.874C70.8305 96.0513 70.2891 96.14 69.6825 96.14C69.1505 96.14 68.6511 96.0467 68.1845 95.86C67.7271 95.664 67.3258 95.398 66.9805 95.062C66.6351 94.726 66.3645 94.3293 66.1685 93.872C65.9725 93.4147 65.8745 92.9247 65.8745 92.402C65.8745 91.87 65.9678 91.3753 66.1545 90.918C66.3411 90.4607 66.5931 90.064 66.9105 89.728C67.2371 89.392 67.6245 89.1307 68.0725 88.944C68.5205 88.748 69.0011 88.65 69.5145 88.65C70.0371 88.65 70.5131 88.748 70.9425 88.944C71.3811 89.1307 71.7545 89.392 72.0625 89.728C72.3798 90.064 72.6271 90.47 72.8045 90.946C72.9818 91.4127 73.0705 91.926 73.0705 92.486V92.976H68.1005C68.2031 93.3773 68.4085 93.704 68.7165 93.956C69.0245 94.208 69.3838 94.334 69.7945 94.334C70.0931 94.334 70.3638 94.2827 70.6065 94.18C70.8585 94.0773 71.0638 93.928 71.2225 93.732L72.7205 94.978ZM69.5005 90.414C69.1458 90.414 68.8471 90.526 68.6045 90.75C68.3618 90.974 68.1938 91.2867 68.1005 91.688H70.9705C70.8771 91.296 70.6998 90.988 70.4385 90.764C70.1771 90.5307 69.8645 90.414 69.5005 90.414Z" fill="#487CFB"/>
<path d="M10.4384 96.112C9.71039 96.112 9.11306 95.9113 8.64639 95.51C8.17972 95.0993 7.94639 94.572 7.94639 93.928C7.94639 93.2653 8.19372 92.752 8.68839 92.388C9.18306 92.0147 9.87372 91.828 10.7604 91.828C11.0217 91.828 11.2877 91.856 11.5584 91.912C11.8291 91.9587 12.1231 92.0427 12.4404 92.164V91.576C12.4404 91.2307 12.3191 90.9693 12.0764 90.792C11.8431 90.6147 11.4884 90.526 11.0124 90.526C10.7417 90.526 10.4384 90.568 10.1024 90.652C9.77572 90.7267 9.40239 90.8527 8.98239 91.03L8.19839 89.448C8.78639 89.1867 9.35106 88.9907 9.89239 88.86C10.4431 88.7293 10.9844 88.664 11.5164 88.664C12.5151 88.664 13.2897 88.902 13.8404 89.378C14.4004 89.854 14.6804 90.5213 14.6804 91.38V96H12.4404V95.37C12.1231 95.6313 11.8057 95.8227 11.4884 95.944C11.1711 96.056 10.8211 96.112 10.4384 96.112ZM10.0324 93.886C10.0324 94.1193 10.1304 94.3013 10.3264 94.432C10.5224 94.5533 10.7931 94.614 11.1384 94.614C11.3717 94.614 11.5957 94.586 11.8104 94.53C12.0344 94.4647 12.2444 94.3713 12.4404 94.25V93.326C12.2351 93.2793 12.0251 93.242 11.8104 93.214C11.6051 93.186 11.3997 93.172 11.1944 93.172C10.8211 93.172 10.5317 93.2327 10.3264 93.354C10.1304 93.4753 10.0324 93.6527 10.0324 93.886ZM16.3898 99.01V88.776H18.6298V89.784C18.8631 89.4667 19.1711 89.2147 19.5538 89.028C19.9365 88.832 20.3425 88.734 20.7718 88.734C21.2105 88.734 21.6258 88.832 22.0178 89.028C22.4098 89.2147 22.7458 89.476 23.0258 89.812C23.3151 90.1387 23.5438 90.526 23.7118 90.974C23.8798 91.422 23.9638 91.898 23.9638 92.402C23.9638 92.906 23.8751 93.382 23.6978 93.83C23.5298 94.2687 23.2918 94.6513 22.9838 94.978C22.6851 95.3047 22.3305 95.566 21.9198 95.762C21.5091 95.9487 21.0705 96.042 20.6038 96.042C20.2118 96.042 19.8478 95.972 19.5118 95.832C19.1758 95.6827 18.8911 95.4727 18.6578 95.202V99.01H16.3898ZM20.0158 90.61C19.7358 90.61 19.4838 90.6613 19.2598 90.764C19.0358 90.8573 18.8351 91.002 18.6578 91.198V93.606C18.8351 93.7833 19.0405 93.9233 19.2738 94.026C19.5071 94.1287 19.7545 94.18 20.0158 94.18C20.5105 94.18 20.9211 94.012 21.2478 93.676C21.5745 93.3307 21.7378 92.9013 21.7378 92.388C21.7378 91.884 21.5698 91.464 21.2338 91.128C20.9071 90.7827 20.5011 90.61 20.0158 90.61ZM25.3996 99.01V88.776H27.6396V89.784C27.8729 89.4667 28.1809 89.2147 28.5636 89.028C28.9462 88.832 29.3522 88.734 29.7816 88.734C30.2202 88.734 30.6356 88.832 31.0276 89.028C31.4196 89.2147 31.7556 89.476 32.0356 89.812C32.3249 90.1387 32.5536 90.526 32.7216 90.974C32.8896 91.422 32.9736 91.898 32.9736 92.402C32.9736 92.906 32.8849 93.382 32.7076 93.83C32.5396 94.2687 32.3016 94.6513 31.9936 94.978C31.6949 95.3047 31.3402 95.566 30.9296 95.762C30.5189 95.9487 30.0802 96.042 29.6136 96.042C29.2216 96.042 28.8576 95.972 28.5216 95.832C28.1856 95.6827 27.9009 95.4727 27.6676 95.202V99.01H25.3996ZM29.0256 90.61C28.7456 90.61 28.4936 90.6613 28.2696 90.764C28.0456 90.8573 27.8449 91.002 27.6676 91.198V93.606C27.8449 93.7833 28.0502 93.9233 28.2836 94.026C28.5169 94.1287 28.7642 94.18 29.0256 94.18C29.5202 94.18 29.9309 94.012 30.2576 93.676C30.5842 93.3307 30.7476 92.9013 30.7476 92.388C30.7476 91.884 30.5796 91.464 30.2436 91.128C29.9169 90.7827 29.5109 90.61 29.0256 90.61ZM34.6193 86.2H36.8873L41.2413 92.136L41.1993 86.2H43.4673V96H41.3393L36.8453 89.868L36.8873 96H34.6193V86.2ZM47.4618 96.112C46.7338 96.112 46.1365 95.9113 45.6698 95.51C45.2032 95.0993 44.9698 94.572 44.9698 93.928C44.9698 93.2653 45.2172 92.752 45.7118 92.388C46.2065 92.0147 46.8972 91.828 47.7838 91.828C48.0452 91.828 48.3112 91.856 48.5818 91.912C48.8525 91.9587 49.1465 92.0427 49.4638 92.164V91.576C49.4638 91.2307 49.3425 90.9693 49.0998 90.792C48.8665 90.6147 48.5118 90.526 48.0358 90.526C47.7652 90.526 47.4618 90.568 47.1258 90.652C46.7992 90.7267 46.4258 90.8527 46.0058 91.03L45.2218 89.448C45.8098 89.1867 46.3745 88.9907 46.9158 88.86C47.4665 88.7293 48.0078 88.664 48.5398 88.664C49.5385 88.664 50.3132 88.902 50.8638 89.378C51.4238 89.854 51.7038 90.5213 51.7038 91.38V96H49.4638V95.37C49.1465 95.6313 48.8292 95.8227 48.5118 95.944C48.1945 96.056 47.8445 96.112 47.4618 96.112ZM47.0558 93.886C47.0558 94.1193 47.1538 94.3013 47.3498 94.432C47.5458 94.5533 47.8165 94.614 48.1618 94.614C48.3952 94.614 48.6192 94.586 48.8338 94.53C49.0578 94.4647 49.2678 94.3713 49.4638 94.25V93.326C49.2585 93.2793 49.0485 93.242 48.8338 93.214C48.6285 93.186 48.4232 93.172 48.2178 93.172C47.8445 93.172 47.5552 93.2327 47.3498 93.354C47.1538 93.4753 47.0558 93.6527 47.0558 93.886ZM53.4133 96V88.776H55.6813V89.924C55.9426 89.5133 56.2553 89.2007 56.6193 88.986C56.9833 88.7713 57.3846 88.664 57.8233 88.664C58.2899 88.664 58.7006 88.7853 59.0553 89.028C59.4099 89.2707 59.6759 89.5973 59.8533 90.008C60.1333 89.5787 60.4739 89.2473 60.8753 89.014C61.2766 88.7807 61.7246 88.664 62.2193 88.664C62.8819 88.664 63.4233 88.902 63.8433 89.378C64.2726 89.854 64.4873 90.4607 64.4873 91.198V96H62.2193V91.646C62.2193 91.282 62.1166 90.9927 61.9113 90.778C61.7153 90.554 61.4586 90.442 61.1413 90.442C60.9359 90.442 60.7446 90.4887 60.5673 90.582C60.3993 90.666 60.2406 90.806 60.0913 91.002V96H57.8233V91.646C57.8233 91.282 57.7206 90.9927 57.5153 90.778C57.3193 90.554 57.0626 90.442 56.7453 90.442C56.5399 90.442 56.3486 90.4887 56.1713 90.582C55.9939 90.6753 55.8306 90.8153 55.6813 91.002V96H53.4133ZM72.7205 94.978C72.2538 95.3887 71.7825 95.6873 71.3065 95.874C70.8305 96.0513 70.2891 96.14 69.6825 96.14C69.1505 96.14 68.6511 96.0467 68.1845 95.86C67.7271 95.664 67.3258 95.398 66.9805 95.062C66.6351 94.726 66.3645 94.3293 66.1685 93.872C65.9725 93.4147 65.8745 92.9247 65.8745 92.402C65.8745 91.87 65.9678 91.3753 66.1545 90.918C66.3411 90.4607 66.5931 90.064 66.9105 89.728C67.2371 89.392 67.6245 89.1307 68.0725 88.944C68.5205 88.748 69.0011 88.65 69.5145 88.65C70.0371 88.65 70.5131 88.748 70.9425 88.944C71.3811 89.1307 71.7545 89.392 72.0625 89.728C72.3798 90.064 72.6271 90.47 72.8045 90.946C72.9818 91.4127 73.0705 91.926 73.0705 92.486V92.976H68.1005C68.2031 93.3773 68.4085 93.704 68.7165 93.956C69.0245 94.208 69.3838 94.334 69.7945 94.334C70.0931 94.334 70.3638 94.2827 70.6065 94.18C70.8585 94.0773 71.0638 93.928 71.2225 93.732L72.7205 94.978ZM69.5005 90.414C69.1458 90.414 68.8471 90.526 68.6045 90.75C68.3618 90.974 68.1938 91.2867 68.1005 91.688H70.9705C70.8771 91.296 70.6998 90.988 70.4385 90.764C70.1771 90.5307 69.8645 90.414 69.5005 90.414Z" fill="#487CFB"/>
<path d="M8.43839 98.112C7.71039 98.112 7.11306 97.9113 6.64639 97.51C6.17972 97.0993 5.94639 96.572 5.94639 95.928C5.94639 95.2653 6.19372 94.752 6.68839 94.388C7.18306 94.0147 7.87372 93.828 8.76039 93.828C9.02172 93.828 9.28772 93.856 9.55839 93.912C9.82906 93.9587 10.1231 94.0427 10.4404 94.164V93.576C10.4404 93.2307 10.3191 92.9693 10.0764 92.792C9.84306 92.6147 9.48839 92.526 9.01239 92.526C8.74172 92.526 8.43839 92.568 8.10239 92.652C7.77572 92.7267 7.40239 92.8527 6.98239 93.03L6.19839 91.448C6.78639 91.1867 7.35106 90.9907 7.89239 90.86C8.44306 90.7293 8.98439 90.664 9.51639 90.664C10.5151 90.664 11.2897 90.902 11.8404 91.378C12.4004 91.854 12.6804 92.5213 12.6804 93.38V98H10.4404V97.37C10.1231 97.6313 9.80572 97.8227 9.48839 97.944C9.17106 98.056 8.82106 98.112 8.43839 98.112ZM8.03239 95.886C8.03239 96.1193 8.13039 96.3013 8.32639 96.432C8.52239 96.5533 8.79306 96.614 9.13839 96.614C9.37172 96.614 9.59572 96.586 9.81039 96.53C10.0344 96.4647 10.2444 96.3713 10.4404 96.25V95.326C10.2351 95.2793 10.0251 95.242 9.81039 95.214C9.60506 95.186 9.39972 95.172 9.19439 95.172C8.82106 95.172 8.53172 95.2327 8.32639 95.354C8.13039 95.4753 8.03239 95.6527 8.03239 95.886ZM14.3898 101.01V90.776H16.6298V91.784C16.8631 91.4667 17.1711 91.2147 17.5538 91.028C17.9365 90.832 18.3425 90.734 18.7718 90.734C19.2105 90.734 19.6258 90.832 20.0178 91.028C20.4098 91.2147 20.7458 91.476 21.0258 91.812C21.3151 92.1387 21.5438 92.526 21.7118 92.974C21.8798 93.422 21.9638 93.898 21.9638 94.402C21.9638 94.906 21.8751 95.382 21.6978 95.83C21.5298 96.2687 21.2918 96.6513 20.9838 96.978C20.6851 97.3047 20.3305 97.566 19.9198 97.762C19.5091 97.9487 19.0705 98.042 18.6038 98.042C18.2118 98.042 17.8478 97.972 17.5118 97.832C17.1758 97.6827 16.8911 97.4727 16.6578 97.202V101.01H14.3898ZM18.0158 92.61C17.7358 92.61 17.4838 92.6613 17.2598 92.764C17.0358 92.8573 16.8351 93.002 16.6578 93.198V95.606C16.8351 95.7833 17.0405 95.9233 17.2738 96.026C17.5071 96.1287 17.7545 96.18 18.0158 96.18C18.5105 96.18 18.9211 96.012 19.2478 95.676C19.5745 95.3307 19.7378 94.9013 19.7378 94.388C19.7378 93.884 19.5698 93.464 19.2338 93.128C18.9071 92.7827 18.5011 92.61 18.0158 92.61ZM23.3996 101.01V90.776H25.6396V91.784C25.8729 91.4667 26.1809 91.2147 26.5636 91.028C26.9462 90.832 27.3522 90.734 27.7816 90.734C28.2202 90.734 28.6356 90.832 29.0276 91.028C29.4196 91.2147 29.7556 91.476 30.0356 91.812C30.3249 92.1387 30.5536 92.526 30.7216 92.974C30.8896 93.422 30.9736 93.898 30.9736 94.402C30.9736 94.906 30.8849 95.382 30.7076 95.83C30.5396 96.2687 30.3016 96.6513 29.9936 96.978C29.6949 97.3047 29.3402 97.566 28.9296 97.762C28.5189 97.9487 28.0802 98.042 27.6136 98.042C27.2216 98.042 26.8576 97.972 26.5216 97.832C26.1856 97.6827 25.9009 97.4727 25.6676 97.202V101.01H23.3996ZM27.0256 92.61C26.7456 92.61 26.4936 92.6613 26.2696 92.764C26.0456 92.8573 25.8449 93.002 25.6676 93.198V95.606C25.8449 95.7833 26.0502 95.9233 26.2836 96.026C26.5169 96.1287 26.7642 96.18 27.0256 96.18C27.5202 96.18 27.9309 96.012 28.2576 95.676C28.5842 95.3307 28.7476 94.9013 28.7476 94.388C28.7476 93.884 28.5796 93.464 28.2436 93.128C27.9169 92.7827 27.5109 92.61 27.0256 92.61ZM32.6193 88.2H34.8873L39.2413 94.136L39.1993 88.2H41.4673V98H39.3393L34.8453 91.868L34.8873 98H32.6193V88.2ZM45.4618 98.112C44.7338 98.112 44.1365 97.9113 43.6698 97.51C43.2032 97.0993 42.9698 96.572 42.9698 95.928C42.9698 95.2653 43.2172 94.752 43.7118 94.388C44.2065 94.0147 44.8972 93.828 45.7838 93.828C46.0452 93.828 46.3112 93.856 46.5818 93.912C46.8525 93.9587 47.1465 94.0427 47.4638 94.164V93.576C47.4638 93.2307 47.3425 92.9693 47.0998 92.792C46.8665 92.6147 46.5118 92.526 46.0358 92.526C45.7652 92.526 45.4618 92.568 45.1258 92.652C44.7992 92.7267 44.4258 92.8527 44.0058 93.03L43.2218 91.448C43.8098 91.1867 44.3745 90.9907 44.9158 90.86C45.4665 90.7293 46.0078 90.664 46.5398 90.664C47.5385 90.664 48.3132 90.902 48.8638 91.378C49.4238 91.854 49.7038 92.5213 49.7038 93.38V98H47.4638V97.37C47.1465 97.6313 46.8292 97.8227 46.5118 97.944C46.1945 98.056 45.8445 98.112 45.4618 98.112ZM45.0558 95.886C45.0558 96.1193 45.1538 96.3013 45.3498 96.432C45.5458 96.5533 45.8165 96.614 46.1618 96.614C46.3952 96.614 46.6192 96.586 46.8338 96.53C47.0578 96.4647 47.2678 96.3713 47.4638 96.25V95.326C47.2585 95.2793 47.0485 95.242 46.8338 95.214C46.6285 95.186 46.4232 95.172 46.2178 95.172C45.8445 95.172 45.5552 95.2327 45.3498 95.354C45.1538 95.4753 45.0558 95.6527 45.0558 95.886ZM51.4133 98V90.776H53.6813V91.924C53.9426 91.5133 54.2553 91.2007 54.6193 90.986C54.9833 90.7713 55.3846 90.664 55.8233 90.664C56.2899 90.664 56.7006 90.7853 57.0553 91.028C57.4099 91.2707 57.6759 91.5973 57.8533 92.008C58.1333 91.5787 58.4739 91.2473 58.8753 91.014C59.2766 90.7807 59.7246 90.664 60.2193 90.664C60.8819 90.664 61.4233 90.902 61.8433 91.378C62.2726 91.854 62.4873 92.4607 62.4873 93.198V98H60.2193V93.646C60.2193 93.282 60.1166 92.9927 59.9113 92.778C59.7153 92.554 59.4586 92.442 59.1413 92.442C58.9359 92.442 58.7446 92.4887 58.5673 92.582C58.3993 92.666 58.2406 92.806 58.0913 93.002V98H55.8233V93.646C55.8233 93.282 55.7206 92.9927 55.5153 92.778C55.3193 92.554 55.0626 92.442 54.7453 92.442C54.5399 92.442 54.3486 92.4887 54.1713 92.582C53.9939 92.6753 53.8306 92.8153 53.6813 93.002V98H51.4133ZM70.7205 96.978C70.2538 97.3887 69.7825 97.6873 69.3065 97.874C68.8305 98.0513 68.2891 98.14 67.6825 98.14C67.1505 98.14 66.6511 98.0467 66.1845 97.86C65.7271 97.664 65.3258 97.398 64.9805 97.062C64.6351 96.726 64.3645 96.3293 64.1685 95.872C63.9725 95.4147 63.8745 94.9247 63.8745 94.402C63.8745 93.87 63.9678 93.3753 64.1545 92.918C64.3411 92.4607 64.5931 92.064 64.9105 91.728C65.2371 91.392 65.6245 91.1307 66.0725 90.944C66.5205 90.748 67.0011 90.65 67.5145 90.65C68.0371 90.65 68.5131 90.748 68.9425 90.944C69.3811 91.1307 69.7545 91.392 70.0625 91.728C70.3798 92.064 70.6271 92.47 70.8045 92.946C70.9818 93.4127 71.0705 93.926 71.0705 94.486V94.976H66.1005C66.2031 95.3773 66.4085 95.704 66.7165 95.956C67.0245 96.208 67.3838 96.334 67.7945 96.334C68.0931 96.334 68.3638 96.2827 68.6065 96.18C68.8585 96.0773 69.0638 95.928 69.2225 95.732L70.7205 96.978ZM67.5005 92.414C67.1458 92.414 66.8471 92.526 66.6045 92.75C66.3618 92.974 66.1938 93.2867 66.1005 93.688H68.9705C68.8771 93.296 68.6998 92.988 68.4385 92.764C68.1771 92.5307 67.8645 92.414 67.5005 92.414Z" fill="white"/>
</svg>
