<svg width="35" height="31" viewBox="0 0 35 31" fill="none" xmlns="http://www.w3.org/2000/svg">
<path d="M17.5 0.1875C7.82852 0.1875 1.81688e-10 8.01438 1.81688e-10 17.6875V20.9688C-5.23482e-06 21.375 0.113117 21.7732 0.326691 22.1188C0.540264 22.4644 0.845851 22.7437 1.20921 22.9253L2.19242 23.4169C2.32989 27.5246 5.70261 30.8125 9.84375 30.8125H11.4844C12.3905 30.8125 13.125 30.078 13.125 29.1719V17.1406C13.125 16.2345 12.3905 15.5 11.4844 15.5H9.84375C7.70123 15.5 5.76468 16.3804 4.375 17.7987V17.6875C4.375 10.4504 10.2629 4.5625 17.5 4.5625C24.7371 4.5625 30.625 10.4504 30.625 17.6875V17.7987C29.2353 16.3804 27.2988 15.5 25.1562 15.5H23.5156C22.6095 15.5 21.875 16.2345 21.875 17.1406V29.1719C21.875 30.078 22.6095 30.8125 23.5156 30.8125H25.1562C29.2974 30.8125 32.6701 27.5245 32.8076 23.4169L33.7907 22.9253C34.1541 22.7437 34.4597 22.4644 34.6733 22.1188C34.8869 21.7732 35 21.375 35 20.9688V17.6875C35 8.01608 27.1731 0.1875 17.5 0.1875Z" fill="#8B4BF2"/>
</svg>