<svg width="35" height="36" viewBox="0 0 35 36" fill="none" xmlns="http://www.w3.org/2000/svg">
<path d="M2.625 21.1382L20.125 21.14C20.7775 21.14 21.4067 21.3959 21.8897 21.8577C22.3728 22.3195 22.6751 22.9542 22.7378 23.6379L22.75 23.9013V27.5855C22.7482 34.0329 16.247 35.875 11.375 35.875C6.6115 35.875 0.28875 34.1139 0.0087502 28.0092L0 27.5855V23.9013C3.13226e-05 23.2144 0.243109 22.5522 0.681833 22.0437C1.12056 21.5352 1.72347 21.217 2.373 21.1511L2.625 21.1382ZM23.604 21.1382H32.375C33.0273 21.1381 33.6562 21.3938 34.1392 21.8552C34.6222 22.3166 34.9247 22.9508 34.9878 23.6342L35 23.9013V26.6645C34.9982 32.305 29.9985 34.0329 26.25 34.0329C24.9803 34.036 23.7176 33.836 22.505 33.4397C23.6477 32.0582 24.388 30.3026 24.4878 28.1013L24.5 27.5855V23.9013C24.5 22.9913 24.2375 22.1495 23.8018 21.4366L23.604 21.1382H32.375H23.604ZM11.375 0.875C13.4636 0.875 15.4666 1.74835 16.9435 3.30293C18.4203 4.85751 19.25 6.96597 19.25 9.16447C19.25 11.363 18.4203 13.4714 16.9435 15.026C15.4666 16.5806 13.4636 17.4539 11.375 17.4539C9.28642 17.4539 7.28338 16.5806 5.80653 15.026C4.32969 13.4714 3.5 11.363 3.5 9.16447C3.5 6.96597 4.32969 4.85751 5.80653 3.30293C7.28338 1.74835 9.28642 0.875 11.375 0.875ZM27.125 4.55921C28.7495 4.55921 30.3074 5.23849 31.456 6.4476C32.6047 7.65672 33.25 9.29663 33.25 11.0066C33.25 12.7165 32.6047 14.3564 31.456 15.5656C30.3074 16.7747 28.7495 17.4539 27.125 17.4539C25.5005 17.4539 23.9426 16.7747 22.794 15.5656C21.6453 14.3564 21 12.7165 21 11.0066C21 9.29663 21.6453 7.65672 22.794 6.4476C23.9426 5.23849 25.5005 4.55921 27.125 4.55921Z" fill="white"/>
</svg>
