<svg width="22" height="22" viewBox="0 0 22 22" fill="none" xmlns="http://www.w3.org/2000/svg">
<path d="M17.1874 18.3333H4.81242C4.05146 18.3333 3.31933 18.0422 2.76621 17.5196C2.21309 16.997 1.88092 16.2825 1.83784 15.5228L1.83325 15.3541V5.72913C1.83319 5.20651 2.03152 4.70336 2.38817 4.32135C2.74482 3.93935 3.2332 3.70698 3.75459 3.67121L3.89575 3.66663H15.3541C15.8767 3.66656 16.3799 3.8649 16.7619 4.22155C17.1439 4.5782 17.3762 5.06657 17.412 5.58796L17.4166 5.72913V6.41663H18.1041C18.6267 6.41656 19.1299 6.6149 19.5119 6.97155C19.8939 7.3282 20.1262 7.81657 20.162 8.33796L20.1666 8.47913V15.3541C20.1666 16.1151 19.8755 16.8472 19.3529 17.4003C18.8303 17.9535 18.1158 18.2856 17.3561 18.3287L17.1874 18.3333H4.81242H17.1874ZM4.81242 16.9583H17.1874C17.5902 16.9583 17.9781 16.8067 18.2743 16.5338C18.5705 16.2609 18.7532 15.8866 18.7861 15.4852L18.7916 15.3541V8.47913C18.7916 8.31299 18.7314 8.15248 18.6222 8.02727C18.513 7.90207 18.3622 7.82064 18.1976 7.79804L18.1041 7.79163H17.4166V14.8958C17.4166 15.0619 17.3564 15.2224 17.2472 15.3476C17.138 15.4729 16.9872 15.5543 16.8226 15.5769L16.7291 15.5833C16.563 15.5833 16.4024 15.5231 16.2772 15.4139C16.152 15.3047 16.0706 15.1539 16.048 14.9893L16.0416 14.8958V5.72913C16.0416 5.56299 15.9814 5.40248 15.8722 5.27727C15.763 5.15207 15.6122 5.07064 15.4476 5.04804L15.3541 5.04163H3.89575C3.72962 5.04163 3.56911 5.1018 3.4439 5.211C3.31869 5.32019 3.23726 5.47103 3.21467 5.63563L3.20825 5.72913V15.3541C3.20827 15.7567 3.35966 16.1446 3.63238 16.4407C3.90509 16.7369 4.27919 16.9197 4.68042 16.9528L4.81242 16.9583H17.1874H4.81242ZM11.2254 13.2916H13.9809C14.1551 13.2917 14.3228 13.3579 14.4501 13.4768C14.5773 13.5957 14.6547 13.7585 14.6666 13.9323C14.6785 14.106 14.6239 14.2779 14.514 14.413C14.4041 14.5481 14.247 14.6365 14.0744 14.6602L13.9809 14.6666H11.2254C11.0512 14.6666 10.8836 14.6004 10.7563 14.4815C10.629 14.3626 10.5516 14.1998 10.5397 14.026C10.5279 13.8522 10.5824 13.6804 10.6923 13.5453C10.8022 13.4101 10.9594 13.3218 11.1319 13.298L11.2254 13.2916H13.9809H11.2254ZM8.47267 10.0879C8.655 10.0879 8.82987 10.1603 8.9588 10.2892C9.08774 10.4182 9.16017 10.593 9.16017 10.7754V13.9791C9.16017 14.1615 9.08774 14.3363 8.9588 14.4653C8.82987 14.5942 8.655 14.6666 8.47267 14.6666H5.26892C5.08658 14.6666 4.91171 14.5942 4.78278 14.4653C4.65385 14.3363 4.58142 14.1615 4.58142 13.9791V10.7754C4.58142 10.593 4.65385 10.4182 4.78278 10.2892C4.91171 10.1603 5.08658 10.0879 5.26892 10.0879H8.47267ZM7.78517 11.4629H5.95642V13.2916H7.78517V11.4629ZM11.2254 10.0879H13.9809C14.1551 10.0879 14.3228 10.1541 14.4501 10.273C14.5773 10.3919 14.6547 10.5547 14.6666 10.7285C14.6785 10.9023 14.6239 11.0741 14.514 11.2092C14.4041 11.3444 14.247 11.4327 14.0744 11.4565L13.9809 11.4629H11.2254C11.05 11.4647 10.8805 11.3993 10.7517 11.2802C10.6229 11.1611 10.5445 10.9973 10.5325 10.8222C10.5206 10.6472 10.576 10.4742 10.6874 10.3387C10.7989 10.2032 10.9579 10.1155 11.1319 10.0934L11.2254 10.0879H13.9809H11.2254ZM5.26892 6.87679H13.9809C14.1563 6.87501 14.3258 6.94036 14.4546 7.05946C14.5835 7.17856 14.6619 7.3424 14.6738 7.51743C14.6858 7.69246 14.6303 7.86544 14.5189 8.00094C14.4075 8.13644 14.2485 8.22422 14.0744 8.24629L13.9809 8.25179H5.26892C5.09473 8.25174 4.92706 8.18557 4.79978 8.06665C4.6725 7.94773 4.5951 7.78494 4.58323 7.61115C4.57136 7.43737 4.62589 7.26556 4.73582 7.13044C4.84574 6.99531 5.00286 6.90695 5.17542 6.88321L5.26892 6.87679H13.9809H5.26892Z" fill="#F8F8F8"/>
</svg>
