<svg width="22" height="22" viewBox="0 0 22 22" fill="none" xmlns="http://www.w3.org/2000/svg">
<path d="M17.4166 13.75V3.66667C17.4159 3.52898 17.3843 3.3932 17.324 3.26942C17.2637 3.14564 17.1763 3.03703 17.0682 2.95167C16.9617 2.86552 16.8373 2.80433 16.704 2.77261C16.5708 2.74088 16.4321 2.73942 16.2982 2.76833L8.04824 4.60167C7.84457 4.6476 7.66269 4.76167 7.53267 4.92503C7.40266 5.08838 7.3323 5.29122 7.33324 5.5V13.145C6.70746 12.8496 6.00276 12.765 5.32485 12.904C4.64695 13.043 4.03239 13.3981 3.57338 13.916C3.11437 14.4338 2.83565 15.0866 2.77904 15.7763C2.72242 16.466 2.89097 17.1554 3.25939 17.7412C3.62781 18.327 4.17623 18.7775 4.82239 19.0252C5.46856 19.2729 6.17761 19.3044 6.84319 19.115C7.50877 18.9255 8.09498 18.5254 8.51389 17.9746C8.9328 17.4238 9.16181 16.752 9.16657 16.06C9.17605 15.9013 9.17605 15.7421 9.16657 15.5833V6.23333L15.5832 4.8125V11.3117C14.9571 11.0161 14.252 10.9316 13.5737 11.0709C12.8955 11.2102 12.2808 11.5658 11.8218 12.0843C11.3629 12.6028 11.0846 13.2561 11.0287 13.9463C10.9728 14.6364 11.1423 15.3261 11.5118 15.9117C11.8812 16.4973 12.4307 16.9472 13.0777 17.1939C13.7246 17.4406 14.4342 17.4707 15.0997 17.2797C15.7653 17.0888 16.3509 16.687 16.7687 16.1349C17.1864 15.5827 17.4138 14.9099 17.4166 14.2175C17.4253 14.0618 17.4253 13.9057 17.4166 13.75Z" fill="#F8F8F8"/>
</svg>
