<svg width="22" height="22" viewBox="0 0 22 22" fill="none" xmlns="http://www.w3.org/2000/svg">
<path d="M6.5999 2.19995H15.3999C15.9834 2.19995 16.543 2.43174 16.9555 2.84432C17.3681 3.2569 17.5999 3.81647 17.5999 4.39995V17.5999C17.5999 18.1834 17.3681 18.743 16.9555 19.1556C16.543 19.5682 15.9834 19.7999 15.3999 19.7999H6.5999C6.01643 19.7999 5.45685 19.5682 5.04427 19.1556C4.63169 18.743 4.3999 18.1834 4.3999 17.5999V4.39995C4.3999 3.81647 4.63169 3.2569 5.04427 2.84432C5.45685 2.43174 6.01643 2.19995 6.5999 2.19995ZM6.5999 3.29995C6.30816 3.29995 6.02838 3.41584 5.82209 3.62213C5.6158 3.82842 5.4999 4.10821 5.4999 4.39995V17.5999C5.4999 17.8917 5.6158 18.1715 5.82209 18.3778C6.02838 18.5841 6.30816 18.6999 6.5999 18.6999H15.3999C15.6916 18.6999 15.9714 18.5841 16.1777 18.3778C16.384 18.1715 16.4999 17.8917 16.4999 17.5999V4.39995C16.4999 4.10821 16.384 3.82842 16.1777 3.62213C15.9714 3.41584 15.6916 3.29995 15.3999 3.29995H6.5999Z" fill="#F8F8F8"/>
<path d="M14.3 7.14998C14.3 7.2787 14.2549 7.40337 14.1725 7.50226C14.0901 7.60115 13.9756 7.668 13.849 7.69118L13.75 7.69998H8.24999C8.11255 7.70023 7.97999 7.64901 7.87843 7.55642C7.77686 7.46382 7.71364 7.33655 7.70123 7.19967C7.68881 7.06279 7.72809 6.92623 7.81133 6.81686C7.89457 6.7075 8.01575 6.63326 8.15099 6.60878L8.24999 6.59998H13.75C13.8959 6.59998 14.0358 6.65792 14.1389 6.76107C14.242 6.86421 14.3 7.00411 14.3 7.14998ZM14.3 11C14.3 11.1287 14.2549 11.2534 14.1725 11.3523C14.0901 11.4512 13.9756 11.518 13.849 11.5412L13.75 11.55H8.24999C8.11255 11.5502 7.97999 11.499 7.87843 11.4064C7.77686 11.3138 7.71364 11.1866 7.70123 11.0497C7.68881 10.9128 7.72809 10.7762 7.81133 10.6669C7.89457 10.5575 8.01575 10.4833 8.15099 10.4588L8.24999 10.45H13.75C13.8959 10.45 14.0358 10.5079 14.1389 10.6111C14.242 10.7142 14.3 10.8541 14.3 11ZM14.3 14.85C14.3 14.9787 14.2549 15.1034 14.1725 15.2023C14.0901 15.3012 13.9756 15.368 13.849 15.3912L13.75 15.4H8.24999C8.11255 15.4002 7.97999 15.349 7.87843 15.2564C7.77686 15.1638 7.71364 15.0366 7.70123 14.8997C7.68881 14.7628 7.72809 14.6262 7.81133 14.5169C7.89457 14.4075 8.01575 14.3333 8.15099 14.3088L8.24999 14.3H13.75C13.8959 14.3 14.0358 14.3579 14.1389 14.4611C14.242 14.5642 14.3 14.7041 14.3 14.85Z" fill="#F8F8F8"/>
</svg>
