<svg width="23" height="23" viewBox="0 0 23 23" fill="none" xmlns="http://www.w3.org/2000/svg">
<path d="M11.715 0.589355C8.7753 0.624822 5.96601 1.80837 3.88719 3.88719C1.80837 5.96601 0.624822 8.7753 0.589355 11.715C0.624822 14.6547 1.80837 17.464 3.88719 19.5428C5.96601 21.6216 8.7753 22.8051 11.715 22.8406C14.6547 22.8051 17.464 21.6216 19.5428 19.5428C21.6216 17.464 22.8051 14.6547 22.8406 11.715C22.8051 8.7753 21.6216 5.96601 19.5428 3.88719C17.464 1.80837 14.6547 0.624822 11.715 0.589355ZM18.0725 12.5097H12.5097V18.0725H10.9203V12.5097H5.35748V10.9203H10.9203V5.35748H12.5097V10.9203H18.0725V12.5097Z" fill="white"/>
</svg>
