<svg width="22" height="22" viewBox="0 0 22 22" fill="none" xmlns="http://www.w3.org/2000/svg">
<path d="M9.38303 3.31315C10.4793 3.23921 11.5787 3.40075 12.6074 3.78693C13.6361 4.1731 14.5702 4.77496 15.347 5.55207C16.1238 6.32918 16.7253 7.26354 17.1111 8.29238C17.4968 9.32121 17.6579 10.4207 17.5835 11.517C17.5757 11.5906 17.5827 11.6651 17.6044 11.736C17.626 11.8069 17.6617 11.8727 17.7094 11.9294C17.7571 11.9861 17.8158 12.0326 17.8819 12.0661C17.948 12.0996 18.0201 12.1193 18.0941 12.1242C18.168 12.1291 18.2422 12.119 18.3121 12.0946C18.3821 12.0701 18.4463 12.0317 18.5011 11.9818C18.5558 11.9318 18.5999 11.8714 18.6307 11.804C18.6615 11.7366 18.6783 11.6636 18.6802 11.5896C18.765 10.337 18.5807 9.08083 18.1399 7.90538C17.699 6.72992 17.0118 5.66239 16.1243 4.77448C15.2368 3.88657 14.1696 3.19882 12.9943 2.75742C11.8191 2.31603 10.563 2.1312 9.31043 2.21535C9.23835 2.22012 9.16791 2.23903 9.10314 2.27102C9.03837 2.30301 8.98053 2.34745 8.93293 2.40179C8.88533 2.45613 8.8489 2.51931 8.82572 2.58773C8.80254 2.65615 8.79306 2.72847 8.79783 2.80055C8.8026 2.87263 8.82151 2.94307 8.8535 3.00784C8.88549 3.07261 8.92993 3.13045 8.98427 3.17805C9.03861 3.22565 9.10179 3.26208 9.17021 3.28526C9.23863 3.30844 9.31095 3.31792 9.38303 3.31315Z" fill="white"/>
<path d="M8.80006 5.48241C8.80303 5.41007 8.82026 5.33902 8.85075 5.27335C8.88124 5.20767 8.92439 5.14867 8.97774 5.09971C9.03109 5.05076 9.09358 5.01282 9.16162 4.98808C9.22967 4.96333 9.30193 4.95226 9.37426 4.95551C11.0927 5.0304 12.7206 5.74669 13.9367 6.96304C15.1528 8.17938 15.8689 9.8074 15.9435 11.5258C15.9475 11.5985 15.937 11.6712 15.9127 11.7399C15.8884 11.8085 15.8507 11.8716 15.8018 11.9255C15.753 11.9795 15.6939 12.0232 15.628 12.0541C15.5621 12.085 15.4907 12.1025 15.418 12.1057C15.3452 12.1088 15.2726 12.0975 15.2043 12.0723C15.136 12.0472 15.0733 12.0087 15.02 11.9592C14.9667 11.9096 14.9237 11.85 14.8936 11.7837C14.8635 11.7175 14.8468 11.6459 14.8446 11.5731C14.7816 10.1302 14.1802 8.76321 13.159 7.74183C12.1378 6.72045 10.771 6.11879 9.32806 6.05551C9.25572 6.05268 9.18465 6.03559 9.11893 6.00524C9.0532 5.97488 8.99412 5.93184 8.94506 5.8786C8.89601 5.82535 8.85795 5.76295 8.83306 5.69496C8.80818 5.62697 8.79697 5.55474 8.80006 5.48241Z" fill="white"/>
<path d="M6.64192 18.0366L7.86292 19.2488C7.96592 19.3509 8.10508 19.4082 8.25012 19.4082C8.39515 19.4082 8.53431 19.3509 8.63732 19.2488L9.88582 18.0091C10.5084 17.3906 11.1303 16.7713 11.7514 16.1512C12.444 15.4586 12.9156 14.5762 13.1066 13.6156C13.2977 12.655 13.1996 11.6593 12.8248 10.7544C12.4499 9.84951 11.8152 9.0761 11.0008 8.53196C10.1864 7.98782 9.229 7.69739 8.24957 7.69739C7.27013 7.69739 6.31268 7.98782 5.4983 8.53196C4.68393 9.0761 4.04919 9.84951 3.67436 10.7544C3.29953 11.6593 3.20144 12.655 3.3925 13.6156C3.58355 14.5762 4.05517 15.4586 4.74772 16.1512C5.19652 16.6 5.97532 17.3755 6.64192 18.0366ZM8.25012 13.883C7.92191 13.883 7.60715 13.7526 7.37507 13.5206C7.14299 13.2885 7.01262 12.9737 7.01262 12.6455C7.01262 12.3173 7.14299 12.0025 7.37507 11.7705C7.60715 11.5384 7.92191 11.408 8.25012 11.408C8.57832 11.408 8.89308 11.5384 9.12516 11.7705C9.35724 12.0025 9.48762 12.3173 9.48762 12.6455C9.48762 12.9737 9.35724 13.2885 9.12516 13.5206C8.89308 13.7526 8.57832 13.883 8.25012 13.883Z" fill="white"/>
</svg>
