<svg width="22" height="22" viewBox="0 0 22 22" fill="none" xmlns="http://www.w3.org/2000/svg">
<path d="M15.3878 7.52893L11.7762 11.0795C11.3866 10.8918 10.9432 10.8479 10.5243 10.9555C10.1055 11.0631 9.73817 11.3153 9.48729 11.6676C9.2364 12.0198 9.11811 12.4494 9.1533 12.8804C9.1885 13.3114 9.37492 13.7161 9.67962 14.023C9.98432 14.3298 10.3877 14.5191 10.8184 14.5573C11.2492 14.5956 11.6796 14.4803 12.0336 14.2319C12.3876 13.9835 12.6424 13.618 12.7529 13.1999C12.8635 12.7819 12.8227 12.3382 12.6378 11.9473L16.2556 8.39671L15.3878 7.52893Z" fill="white"/>
<path d="M10.9999 2.59717C9.07657 2.59497 7.19277 3.14322 5.57099 4.17719C3.94921 5.21115 2.6572 6.68762 1.84754 8.43224C1.03788 10.1769 0.744403 12.1167 1.00176 14.0228C1.25911 15.9288 2.05656 17.7214 3.29991 19.1888L3.48324 19.4027H18.5166L18.6999 19.1888C19.9433 17.7214 20.7407 15.9288 20.9981 14.0228C21.2554 12.1167 20.9619 10.1769 20.1523 8.43224C19.3426 6.68762 18.0506 5.21115 16.4288 4.17719C14.807 3.14322 12.9232 2.59497 10.9999 2.59717ZM17.9299 18.1805H4.06991C2.97338 16.8084 2.31158 15.1401 2.16935 13.3894H4.27768V12.1672H2.16935C2.27169 10.2267 3.01296 8.37462 4.27768 6.8994L5.77491 8.39662L6.63657 7.53495L5.15157 6.03162C6.60801 4.74434 8.44944 3.9751 10.3888 3.84384V5.98273H11.611V3.84995C13.7533 4.00531 15.7657 4.93505 17.2726 6.46558C18.7795 7.99611 19.6779 10.0228 19.7999 12.1672H17.6732V13.3894H19.8305C19.6882 15.1401 19.0264 16.8084 17.9299 18.1805Z" fill="white"/>
</svg>
