<svg width="22" height="22" viewBox="0 0 22 22" fill="none" xmlns="http://www.w3.org/2000/svg">
<path d="M17.0589 2.77136C16.4841 2.77136 15.9039 3.00236 15.4687 3.43755L6.74568 12.0313L6.31668 12.4397C5.80105 12.5359 5.30949 12.7889 4.91968 13.2131C4.34768 13.8387 4.23493 14.6039 4.01768 15.4255C3.79974 16.2477 3.52337 17.1635 2.85718 18.1755L2.16968 19.25H3.43743C6.1283 19.25 7.90343 17.9637 8.80886 17.0583L8.82949 17.0377C9.24336 16.6128 9.47436 16.0786 9.5603 15.5334L9.90405 15.211L18.6271 6.61724V6.59592C19.0449 6.1766 19.2796 5.60874 19.2796 5.01674C19.2796 4.42474 19.0449 3.85687 18.6271 3.43755C18.1919 3.00236 17.6329 2.77136 17.0582 2.77136H17.0589ZM17.0589 4.12505C17.2734 4.12505 17.4776 4.2213 17.6604 4.40417C18.0282 4.77199 18.0282 5.2608 17.6604 5.6293L11.4509 11.7735L10.2052 10.5271L16.4353 4.40417C16.6182 4.22199 16.8437 4.12505 17.0589 4.12505ZM9.21586 11.4944L10.4623 12.7401L9.43105 13.75L8.18461 12.5036L9.21586 11.4944ZM6.8543 13.7707C7.2008 13.7817 7.57618 13.9157 7.86424 14.1791C8.39843 14.6672 8.41149 15.5217 7.84224 16.091C7.24618 16.687 6.18812 17.4557 4.64124 17.7458C4.97124 17.0232 5.20224 16.3488 5.35005 15.7906C5.5783 14.9284 5.74743 14.3372 5.9303 14.1357C6.16955 13.8759 6.5078 13.7604 6.8543 13.7714V13.7707Z" fill="#F8F8F8"/>
</svg>
