<svg width="22" height="22" viewBox="0 0 22 22" fill="none" xmlns="http://www.w3.org/2000/svg">
<path d="M11 1.83337C10.0935 1.83337 9.20736 2.10218 8.45364 2.6058C7.69991 3.10943 7.11245 3.82525 6.76555 4.66274C6.41865 5.50024 6.32789 6.42179 6.50473 7.31087C6.68158 8.19995 7.1181 9.01662 7.75909 9.65761C8.40008 10.2986 9.21676 10.7351 10.1058 10.912C10.9949 11.0888 11.9165 10.9981 12.754 10.6512C13.5915 10.3043 14.3073 9.7168 14.8109 8.96307C15.3145 8.20935 15.5833 7.32321 15.5833 6.41671C15.5833 5.20113 15.1004 4.03534 14.2409 3.1758C13.3814 2.31626 12.2156 1.83337 11 1.83337ZM11 9.16671C10.4561 9.16671 9.92442 9.00542 9.47218 8.70325C9.01995 8.40108 8.66747 7.97158 8.45933 7.46909C8.25119 6.96659 8.19673 6.41366 8.30284 5.88021C8.40895 5.34676 8.67086 4.85676 9.05546 4.47216C9.44005 4.08757 9.93005 3.82566 10.4635 3.71955C10.9969 3.61344 11.5499 3.6679 12.0524 3.87604C12.5549 4.08418 12.9844 4.43665 13.2865 4.88889C13.5887 5.34112 13.75 5.87281 13.75 6.41671C13.75 7.14605 13.4603 7.84553 12.9445 8.36125C12.4288 8.87698 11.7293 9.16671 11 9.16671ZM19.25 19.25V18.3334C19.25 16.6316 18.574 14.9995 17.3706 13.7961C16.1672 12.5927 14.5351 11.9167 12.8333 11.9167H9.16667C7.46486 11.9167 5.83276 12.5927 4.6294 13.7961C3.42604 14.9995 2.75 16.6316 2.75 18.3334V19.25H4.58333V18.3334C4.58333 17.1178 5.06622 15.952 5.92576 15.0925C6.7853 14.2329 7.95109 13.75 9.16667 13.75H12.8333C14.0489 13.75 15.2147 14.2329 16.0742 15.0925C16.9338 15.952 17.4167 17.1178 17.4167 18.3334V19.25H19.25Z" fill="#F8F8F8"/>
</svg>
