<svg width="22" height="22" viewBox="0 0 22 22" fill="none" xmlns="http://www.w3.org/2000/svg">
<path d="M14.2871 9.92567H9.11523C8.87211 9.92567 8.63895 10.0222 8.46704 10.1942C8.29514 10.3661 8.19856 10.5992 8.19856 10.8423C8.19856 11.0854 8.29514 11.3186 8.46704 11.4905C8.63895 11.6624 8.87211 11.759 9.11523 11.759H14.2871L13.2586 12.7875C13.1735 12.8727 13.106 12.9738 13.0599 13.085C13.0139 13.1963 12.9902 13.3155 12.9902 13.4359C12.9903 13.5563 13.014 13.6755 13.0602 13.7867C13.1063 13.898 13.1738 13.999 13.259 14.0841C13.3442 14.1692 13.4453 14.2367 13.5565 14.2828C13.6678 14.3288 13.787 14.3525 13.9074 14.3524C14.0278 14.3524 14.147 14.3286 14.2583 14.2825C14.3695 14.2364 14.4705 14.1688 14.5556 14.0837L17.148 11.4913C17.2335 11.4064 17.3014 11.3053 17.3478 11.194C17.3941 11.0827 17.418 10.9634 17.418 10.8428C17.418 10.7222 17.3941 10.6028 17.3478 10.4915C17.3014 10.3802 17.2335 10.2792 17.148 10.1943L14.5566 7.60192C14.4715 7.51675 14.3704 7.44918 14.2592 7.40306C14.148 7.35695 14.0287 7.33319 13.9083 7.33315C13.7879 7.33311 13.6687 7.35678 13.5575 7.40281C13.4462 7.44885 13.3451 7.51635 13.2599 7.60146C13.1748 7.68657 13.1072 7.78762 13.0611 7.89884C13.015 8.01006 12.9912 8.12927 12.9912 8.24968C12.9911 8.37008 13.0148 8.48931 13.0608 8.60056C13.1069 8.71182 13.1744 8.81292 13.2595 8.89808L14.2871 9.92567ZM5.49989 2.75C5.25678 2.75 5.02362 2.84658 4.85171 3.01849C4.6798 3.19039 4.58323 3.42355 4.58323 3.66667V18.3333C4.58323 18.5764 4.6798 18.8096 4.85171 18.9815C5.02362 19.1534 5.25678 19.25 5.49989 19.25C5.74301 19.25 5.97617 19.1534 6.14807 18.9815C6.31998 18.8096 6.41656 18.5764 6.41656 18.3333V3.66667C6.41656 3.42355 6.31998 3.19039 6.14807 3.01849C5.97617 2.84658 5.74301 2.75 5.49989 2.75Z" fill="white"/>
</svg>
